<svg width="173" height="100" viewBox="0 0 173 100" fill="none" xmlns="http://www.w3.org/2000/svg">
<g clip-path="url(#clip0_9_2)">
<path d="M34.6148 0L34.6679 0.114649L34.7209 0L69.3357 74.9999H52.7716L34.6679 35.8942L16.5641 74.9999H0L34.6148 0Z" fill="#F01D27"/>
<path d="M87.1052 0.0378695C98.9268 0.716064 108.304 10.5037 108.304 22.4787C108.304 33.4341 100.456 42.5589 90.0672 44.5526L104.163 74.9999H87.5987L73.7893 45.1704H69.2295V65.1374L55.2137 34.8622V27.9119H75.5199C77.563 32.3161 82.0131 35.3693 87.174 35.3693C91.3582 35.3693 95.0749 33.3623 97.4208 30.2556H88.0234L83.6701 22.5852L88.0234 14.9147H97.5784C95.2434 11.6871 91.4531 9.58805 87.174 9.58805C81.9303 9.58805 77.4204 12.74 75.4235 17.2585H55.2137V0H87.174L87.1052 0.0378695Z" fill="white"/>
<path d="M173 14.4887H134.637V14.4956C130.386 14.6634 126.992 18.1732 126.992 22.4789C126.992 26.7845 130.386 30.2934 134.637 30.4613V30.4691H151.047L151.054 30.472C153.497 30.5144 155.936 30.9613 158.27 31.8147C163.379 33.6834 167.628 37.3704 170.207 42.1746C172.786 46.9787 173.518 52.5662 172.262 57.8756C171.006 63.1851 167.85 67.8477 163.395 70.9766C160.034 73.3364 156.11 74.6999 152.066 74.9557C151.324 75.0026 150.813 75.0141 150.301 75.0136C149.768 75.0131 149.234 74.9996 148.437 74.9996C146.873 74.9996 108.883 74.9996 108.883 74.9996L102.176 60.5109H150.988V60.504C155.238 60.3362 158.633 56.8271 158.634 52.5217C158.634 48.2161 155.239 44.7063 150.988 44.5384V44.5315H134.415L134.401 44.5237C131.993 44.4633 129.59 44.0098 127.292 43.1614C122.192 41.2785 117.957 37.5831 115.392 32.7761C112.826 27.9687 112.108 22.3831 113.374 17.0799C114.64 11.7771 117.801 7.12426 122.258 4.0044C125.794 1.52963 129.95 0.156027 134.212 0.0127404V0H166.292L173 14.4887Z" fill="white"/>
<path d="M171.854 91.172C171.44 90.7021 170.949 90.3329 170.381 90.0643C169.814 89.7958 169.241 89.6615 168.663 89.6615C168.096 89.6615 167.561 89.7734 167.059 89.9972C166.568 90.2098 166.132 90.5119 165.75 90.9035C165.379 91.2951 165.09 91.7538 164.883 92.2797C164.675 92.7944 164.572 93.3538 164.572 93.958C164.572 94.551 164.675 95.1105 164.883 95.6364C165.09 96.151 165.379 96.6042 165.75 96.9958C166.132 97.3874 166.568 97.6951 167.059 97.9189C167.561 98.1427 168.096 98.2545 168.663 98.2545C169.241 98.2545 169.809 98.1315 170.365 97.8853C170.922 97.628 171.418 97.2811 171.854 96.8448L173 98.0699C172.618 98.4615 172.182 98.8028 171.691 99.0937C171.211 99.3846 170.703 99.6084 170.169 99.765C169.645 99.9217 169.11 100 168.565 100C167.725 100 166.945 99.849 166.225 99.5469C165.504 99.2336 164.872 98.8028 164.326 98.2545C163.791 97.7063 163.371 97.0685 163.066 96.3413C162.76 95.6028 162.608 94.814 162.608 93.9748C162.608 93.1357 162.76 92.358 163.066 91.642C163.371 90.9147 163.797 90.2769 164.342 89.7287C164.899 89.1804 165.537 88.7552 166.257 88.4531C166.988 88.151 167.779 88 168.63 88C169.176 88 169.71 88.0727 170.234 88.2182C170.758 88.3636 171.254 88.5706 171.723 88.8392C172.193 89.1077 172.613 89.4322 172.984 89.8126L171.854 91.172Z" fill="white"/>
<path d="M141.758 88.1175H143.656L150.284 97.4322L149.793 97.6V88.1175H151.692V99.8657H149.793L143.182 90.5678L143.689 90.4V99.8657H141.758V88.1175Z" fill="white"/>
<path d="M127.982 88.1175H129.913V99.8657H127.982V88.1175Z" fill="white"/>
<path d="M98.7164 88.1175C100.189 88.1175 101.324 88.4699 102.121 89.1748C102.928 89.8685 103.332 90.8476 103.332 92.1119C103.332 93.4322 102.928 94.4615 102.121 95.2C101.324 95.9273 100.189 96.2909 98.7164 96.2909H95.9997V99.8657H94.0685V88.1175H98.7164ZM98.7164 94.5958C99.6002 94.5958 100.282 94.4 100.762 94.0084C101.253 93.6056 101.499 92.9902 101.499 92.1622C101.499 91.3678 101.253 90.7804 100.762 90.4C100.282 90.0084 99.6002 89.8126 98.7164 89.8126H95.9997V94.5958H98.7164ZM98.7819 95.5189H100.68L103.528 99.8657H101.335L98.7819 95.5189Z" fill="white"/>
<path d="M80.2924 88.1175H82.2236V99.8657H80.2924V88.1175Z" fill="white"/>
<path d="M62.94 88.1175H64.9203L69.9282 99.8657H67.8661L63.8729 90.1147L59.896 99.8657H57.883L62.94 88.1175ZM60.4033 95.4685H67.2606V97.1469H60.4033V95.4685Z" fill="white"/>
<path d="M44.8082 88.1175C46.2484 88.1175 47.3612 88.4699 48.1468 89.1748C48.9433 89.8685 49.3415 90.8476 49.3415 92.1119C49.3415 93.4322 48.9433 94.4615 48.1468 95.2C47.3612 95.9273 46.2484 96.2909 44.8082 96.2909H41.3222L42.1733 95.4182V99.8657H40.2421V88.1175H44.8082ZM44.7263 94.5958C45.6101 94.5958 46.292 94.4 46.7721 94.0084C47.2521 93.6056 47.4922 92.9902 47.4922 92.1622C47.4922 91.3678 47.2521 90.7804 46.7721 90.4C46.292 90.0084 45.6101 89.8126 44.7263 89.8126H41.3222L42.1733 88.9399V95.4685L41.3222 94.5958H44.7263Z" fill="white"/>
<path d="M20.6644 88.1175H28.8474V89.8126H22.5956V93.1189H28.1927V94.7972H22.5956V98.1706H29.0438V99.8657H20.6644V88.1175Z" fill="white"/>
<path d="M4.6479 88.1175C6.12083 88.1175 7.25553 88.4699 8.052 89.1748C8.85938 89.8685 9.26307 90.8476 9.26307 92.1119C9.26307 93.4322 8.85938 94.4615 8.052 95.2C7.25553 95.9273 6.12083 96.2909 4.6479 96.2909H1.93117V99.8657H0V88.1175H4.6479ZM4.6479 94.5958C5.53166 94.5958 6.21357 94.4 6.69363 94.0084C7.18461 93.6056 7.4301 92.9902 7.4301 92.1622C7.4301 91.3678 7.18461 90.7804 6.69363 90.4C6.21357 90.0084 5.53166 89.8126 4.6479 89.8126H1.93117V94.5958H4.6479ZM4.71337 95.5189H6.61181L9.45946 99.8657H7.26644L4.71337 95.5189Z" fill="white"/>
</g>
<defs>
<clipPath id="clip0_9_2">
<rect width="172.962" height="100" fill="white"/>
</clipPath>
</defs>
</svg>
