<svg width="558" height="124" viewBox="0 0 558 124" fill="none" xmlns="http://www.w3.org/2000/svg">
<path fill-rule="evenodd" clip-rule="evenodd" d="M237.71 60.3201C244.587 57.6483 249.09 50.9664 249.004 43.5591C249.004 28.4741 238.351 20.9961 223.72 20.9961H185.345V102.996H227.057C239.891 102.996 252.469 93.9709 252.469 80.1751C252.469 63.8011 237.709 60.4491 237.709 60.3201H237.71ZM205.383 38.0091H220.561C222.68 37.8852 224.752 38.6474 226.252 40.1028C227.753 41.5582 228.539 43.5674 228.412 45.6219C228.37 47.673 227.467 49.6189 225.91 51.0084C224.354 52.3979 222.28 53.1105 220.168 52.981H205.382L205.383 38.0091ZM221.185 84.9961H206.385V68.9961H220.806C228.016 68.9961 231.432 72.1961 231.432 76.9321C231.432 82.8201 227.131 84.9961 221.186 84.9961H221.185Z" fill="#ED0007"/>
<path fill-rule="evenodd" clip-rule="evenodd" d="M297.05 18C273.376 18 259.481 36.982 259.481 61C259.481 85.147 273.376 104 297.05 104C320.852 104 334.619 85.147 334.619 61C334.619 36.982 320.852 18 297.05 18ZM296.986 84C285.341 84 279.518 73.679 279.518 60.936C279.518 48.194 285.34 38 296.986 38C308.631 38 314.583 48.321 314.583 60.936C314.583 73.806 308.631 84 296.986 84Z" fill="#ED0007"/>
<path fill-rule="evenodd" clip-rule="evenodd" d="M378.75 52.8001L375.915 52.157C368.956 50.7421 363.415 48.9412 363.415 43.9246C363.415 38.5221 368.698 36.3354 373.338 36.3354C379.735 36.4357 385.803 39.1846 390.091 43.9246L402.849 31.3186C397.05 24.7584 387.643 18.4556 372.952 18.4556C355.684 18.4556 342.539 28.1029 342.539 44.1816C342.539 58.8456 353.106 66.0486 365.993 68.7496L368.828 69.3927C379.524 71.5794 383.519 73.2516 383.519 78.3968C383.519 83.2848 379.137 86.5005 372.436 86.5005C364.446 86.5005 357.23 83.0275 351.688 75.9525L338.672 88.8155C345.888 97.4338 355.038 104.123 372.693 104.123C388.028 104.123 404.395 95.3756 404.395 77.4955C404.653 58.8445 390.477 55.2425 378.75 52.7985L378.75 52.8001Z" fill="#ED0007"/>
<path fill-rule="evenodd" clip-rule="evenodd" d="M450.27 84.7001C441.249 84.7001 431.842 77.2395 431.842 60.9031C431.842 46.3681 440.605 38.2641 449.755 38.2641C456.971 38.2641 461.224 41.6085 464.575 47.3969L481.07 36.4629C472.822 23.9859 463.028 18.7119 449.497 18.7119C424.754 18.7119 411.352 37.8779 411.352 61.0319C411.352 85.3429 426.172 104.381 449.239 104.381C465.476 104.381 473.209 98.7211 481.585 86.6299L464.961 75.4389C461.61 80.8414 458.002 84.7001 450.27 84.7001Z" fill="#ED0007"/>
<path fill-rule="evenodd" clip-rule="evenodd" d="M536.09 20.6379V50.7399H511.22V20.6379H489.7V102.45H511.22V70.1599H536.09V102.45H557.61V20.6379H536.09Z" fill="#ED0007"/>
<path d="M62.115 0C27.81 0 0 27.758 0 62C0 96.242 27.81 124 62.115 124C96.42 124 124.23 96.242 124.23 62C124.212 27.766 96.413 0.018 62.115 0ZM62.115 118C31.13 118 6.012 92.928 6.012 62C6.012 31.072 31.13 6 62.115 6C93.1 6 118.218 31.072 118.218 62C118.186 92.915 93.086 117.968 62.115 118Z" fill="black"/>
<path d="M87.2954 23H83.0369V44.105H40.3229V23H35.9353C22.8833 31.5369 15.0293 46 15.0293 61.5C15.0293 77 22.8831 91.463 35.9353 100H40.3229V78.895H83.0369V100H87.2954C100.347 91.4631 108.201 77 108.201 61.5C108.201 46 100.348 31.537 87.2954 23ZM35.0664 92C26.1451 84.2569 21.0404 73.157 21.0404 61.5C21.0404 49.843 26.145 38.743 35.0664 31V92ZM83.1554 73H40.0764V50H83.1554V73ZM89.1665 92V79.049V43.951V31C98.0935 38.7767 103.192 49.864 103.192 61.5C103.192 73.136 98.0937 84.223 89.1665 92Z" fill="black"/>
</svg>
