<svg width="637" height="147" viewBox="0 0 637 147" fill="none" xmlns="http://www.w3.org/2000/svg">
<g clip-path="url(#clip0_294_398)">
<path d="M195.03 85.9001V76.6901H225.43V64.9501H195.02V47.8501H227.37V36.1401H182.58V61.3101V85.3701C182.58 97.8101 187.88 106.33 200.32 108.08C200.57 108.14 200.81 108.19 201.04 108.19H201.27C202.54 108.33 203.85 108.43 205.21 108.43H228.24V96.7301H205.32C201.35 96.7301 195.03 94.7801 195.03 85.9001Z" fill="#041E50"/>
<path d="M237.08 70.3001V108.45H249.52V70.0501V36.1201H237.08V70.3001Z" fill="#041E50"/>
<path d="M285.22 54.5C269.48 54.5 257.71 65.34 257.71 82.22V82.64C257.71 99.11 269.07 109.74 285.54 109.74C293.46 109.74 300.86 107.55 307.64 100.36L300.14 93.06C296.18 97.02 292.32 99.1 285.96 99.1C276.69 99.1 270.54 93.68 270.12 85.34H310.97C311.18 83.26 311.18 80.96 311.18 80.96C311.18 66.27 300.86 54.5 285.22 54.5ZM270.43 76.59C270.95 70.23 277.41 65.13 285.23 65.13C292.53 65.13 298.47 70.34 298.47 76.59H270.43Z" fill="#041E50"/>
<path d="M346.16 65.65C351.79 65.65 355.96 67.73 359.5 71.38L367.21 63.35C361.17 56.89 353.97 54.28 346.16 54.28C330.32 54.28 317.6 66.06 317.6 82.11C317.6 98.16 330.31 109.94 346.16 109.94C353.98 109.94 361.17 107.33 367.21 100.87L359.5 92.84C355.96 96.49 351.79 98.57 346.16 98.57C336.99 98.57 330 91.59 330 82.1C330.01 72.63 336.99 65.65 346.16 65.65Z" fill="#041E50"/>
<path d="M387.41 85.9201H387.4V67.4601H398.73V56.1501H387.42V36.1301H374.97V62.0701V86.6601H375.01C375.37 98.4101 380.71 106.41 392.72 108.1C392.97 108.16 393.21 108.21 393.44 108.21H393.67C394.94 108.35 396.25 108.45 397.61 108.45H398.93L398.98 96.7501H397.72C393.74 96.7501 387.41 94.7901 387.41 85.9201Z" fill="#041E50"/>
<path d="M421.55 63.9301V56.1501H409.2V81.7801V108.45H421.55V80.9501C421.55 72.3401 427.05 66.9401 435.66 66.9401C437.63 66.9401 439.4 67.1501 440.85 67.4601V55.4201C440.33 55.3201 438.47 55.1101 437.12 55.1101C429.64 55.1101 424.04 58.5401 421.55 63.9301Z" fill="#041E50"/>
<path d="M471.29 54.6001C455.41 54.6001 442.75 66.6301 442.75 82.3001C442.75 97.9601 455.41 110 471.29 110C487.06 110 499.82 97.9601 499.82 82.3001C499.82 66.6301 487.06 54.6001 471.29 54.6001ZM471.29 98.6901C462.06 98.6901 455.11 91.5301 455.11 82.3001C455.11 73.0601 462.06 65.9001 471.29 65.9001C480.42 65.9001 487.47 73.0601 487.47 82.3001C487.47 91.5301 480.42 98.6901 471.29 98.6901Z" fill="#041E50"/>
<path d="M507.48 69.0501V108.44H519.94V69.5501V36.1201H507.48V69.0501Z" fill="#041E50"/>
<path d="M564.84 86.5501C564.84 94.8501 559.96 98.3801 553.42 98.3801C546.88 98.3801 542.01 94.8501 542.01 86.6601V56.1501H529.45V71.3001V87.7001C529.45 102.64 540.34 109.8 553.32 109.8C566.39 109.8 577.39 102.54 577.39 87.3901V71.3001V56.1501H564.84V86.5501Z" fill="#041E50"/>
<path d="M624.5 91.7201L616.65 80.7401L626.37 67.5001L634.7 56.1501H621.11L609.8 71.8201L598.38 56.1501H584.9L592.63 66.7301L602.95 80.8401L592.14 95.9101L583.13 108.44H596.52L609.8 89.9701L623.08 108.44H636.46L624.5 91.7201Z" fill="#041E50"/>
<path d="M0 146.13H146.11V0H0V146.13ZM93.65 11.16C119.48 19.62 138.14 44.11 138.21 73.03C138.28 101.49 119.99 125.91 93.65 134.93V11.16ZM73.03 7.85C77.7 7.85 82.67 8.47 86.81 9.3C86.81 42.4 54.79 69.65 21.75 69.65L7.93 69.63C10.2 35.69 38.28 7.85 73.03 7.85ZM21.76 76.54C54.8 76.54 86.8 103.76 86.8 136.83C82.67 137.67 77.45 138.3 73.03 138.3C38.26 138.25 9.23 110.33 7.92 76.54H21.76Z" fill="#041E50"/>
</g>
<defs>
<clipPath id="clip0_294_398">
<rect width="636.46" height="146.13" fill="white"/>
</clipPath>
</defs>
</svg>
