<svg width="273" height="17" viewBox="0 0 273 17" fill="none" xmlns="http://www.w3.org/2000/svg">
<g clip-path="url(#clip0_295_416)">
<path d="M0 16.73V0.27002H11.58V3.89002H4.29V7.27002H11V10.89H4.29V16.73H0Z" fill="black"/>
<path d="M24.0005 16.73H19.7305V0.27002H24.0005V16.73Z" fill="black"/>
<path d="M32.2597 11.53C33.902 12.6693 35.8329 13.3211 37.8297 13.41C39.0897 13.41 40.2697 13.11 40.2697 12.01C40.2697 11.24 39.7097 10.94 38.8797 10.7L36.3897 10C33.6197 9.17005 32.1797 7.85005 32.1797 5.25005C32.1797 2.11005 34.9397 0.0500466 38.4797 0.0500466C40.2536 0.0178614 42.0062 0.441364 43.5697 1.28005V5.28005C42.1025 4.25103 40.3615 3.68346 38.5697 3.65005C37.2897 3.65005 36.3797 4.02005 36.3797 4.93005C36.3797 5.60005 36.8297 5.87005 37.6897 6.14005L40.1797 6.89005C43.1797 7.83005 44.5497 9.25005 44.5497 11.72C44.5497 15.26 41.3597 17.08 37.8197 17.08C35.8765 17.0852 33.9626 16.6076 32.2497 15.69L32.2597 11.53Z" fill="black"/>
<path d="M67.5402 0.27002V16.73H63.2502V10.14H57.0002V16.73H52.6602V0.27002H57.0002V6.52002H63.3002V0.27002H67.5402Z" fill="black"/>
<path d="M88.4302 0.27002V3.89002H81.0002V6.52002H87.8401V10.14H81.0002V13.14H88.4802V16.76H76.6602V0.27002H88.4302Z" fill="black"/>
<path d="M97.25 0.27002H104.25C107.92 0.27002 110.71 2.27002 110.71 5.95002C110.757 7.08902 110.433 8.21247 109.785 9.15059C109.137 10.0887 108.202 10.7905 107.12 11.15L111.46 16.73H106.46L102.57 11.64H101.5V16.73H97.25V0.27002ZM101.54 8.00002H104C105.55 8.00002 106.55 7.19002 106.55 5.93002C106.55 4.67002 105.55 3.87002 104 3.87002H101.56L101.54 8.00002Z" fill="black"/>
<path d="M137.12 15.36C135.853 16.4489 134.23 17.0328 132.56 17C129.08 17 126.18 14.72 126.18 11C126.203 9.92252 126.483 8.86606 126.996 7.91825C127.509 6.97044 128.24 6.15859 129.13 5.55002L127.49 3.55002V0.27002H138.49V3.89002H132.62L137.07 9.57002L138.07 8.02002H142.52L139.35 12.58L142.62 16.73H138.15L137.12 15.36ZM134.87 12.58L131.41 8.31002C130.979 8.60086 130.625 8.99234 130.379 9.4506C130.134 9.90885 130.003 10.4201 130 10.94C129.995 11.2764 130.059 11.6101 130.188 11.921C130.316 12.232 130.506 12.5137 130.746 12.7492C130.986 12.9847 131.272 13.1691 131.585 13.2913C131.899 13.4135 132.233 13.4709 132.57 13.46C132.992 13.4736 133.413 13.4028 133.808 13.2517C134.203 13.1006 134.564 12.8722 134.87 12.58Z" fill="black"/>
<path d="M162.59 16.73H158.3V0.27002H165.3C168.97 0.27002 171.76 2.27002 171.76 5.95002C171.76 9.63002 168.97 11.64 165.3 11.64H162.59V16.73ZM162.59 8.02002H165C166.56 8.02002 167.55 7.21002 167.55 5.95002C167.55 4.69002 166.55 3.89002 165 3.89002H162.56L162.59 8.02002Z" fill="black"/>
<path d="M188 13.7H181.41L180.23 16.7H176L182.7 0.27002H186.78L193.48 16.73H189.16L188 13.7ZM182.83 10.08H186.58L184.71 5.26002L182.83 10.08Z" fill="black"/>
<path d="M202.54 16.73V10.35L196.32 0.27002H201.15L204.82 6.62002L208.49 0.27002H213.05L206.83 10.35V16.73H202.54Z" fill="black"/>
<path d="M223.4 7.27002L228.66 0.27002H233.66L227.58 8.15002L233.9 16.73H228.81L223.4 9.36002V16.73H219.11V0.27002H223.4V7.27002Z" fill="black"/>
<path d="M252.07 0.27002V3.89002H244.58V6.52002H251.42V10.14H244.58V13.14H252.07V16.76H240.29V0.27002H252.07Z" fill="black"/>
<path d="M260.89 0.27002H265.18V13.11H272.58V16.73H260.89V0.27002Z" fill="black"/>
</g>
<defs>
<clipPath id="clip0_295_416">
<rect width="273" height="17" fill="white"/>
</clipPath>
</defs>
</svg>
