<svg width="204" height="24" viewBox="0 0 204 24" fill="none" xmlns="http://www.w3.org/2000/svg">
<path fill-rule="evenodd" clip-rule="evenodd" d="M146.087 12.046V22.963H150V1.16302H146.088L146.087 12.046ZM67.938 13.743H73.625V17.824C72.262 18.821 70.353 19.474 68.255 19.474C63.708 19.474 60.687 16.174 60.687 11.69V11.625C60.687 7.45302 63.802 3.93502 67.903 3.93502C70.734 3.93502 72.419 4.83702 74.135 6.27002L76.615 3.37002C74.33 1.47502 71.94 0.416016 68.066 0.416016C61.354 0.416016 56.585 5.58602 56.585 11.691V11.753C56.585 18.105 61.165 22.964 68.126 22.964C72.07 22.964 75.216 21.406 77.413 19.568V10.409H67.939V13.744" fill="#2D2E2C"/>
<mask id="mask0_295_431" style="mask-type:luminance" maskUnits="userSpaceOnUse" x="0" y="1" width="200" height="22">
<path d="M0.0439453 22.9638V1.16382H199.128V22.9638H0.0439453Z" fill="white"/>
</mask>
<g mask="url(#mask0_295_431)">
<path fill-rule="evenodd" clip-rule="evenodd" d="M186.533 19.5368V13.6818H199.123V10.2548H186.533V4.58882H199.123V1.16382H182.622V22.9638H199.128V19.5368H186.533ZM0 22.9638H3.91V14.0878H16.562V10.6028H3.91V4.65082H16.57V1.16382H0V22.9638Z" fill="#2D2E2C"/>
</g>
<path fill-rule="evenodd" clip-rule="evenodd" d="M25.8797 11.9689V4.64992H31.5737C34.4667 4.64992 36.1837 5.92592 36.1837 8.26292V8.32492C36.1837 10.5349 34.4037 11.9679 31.6057 11.9679L25.8797 11.9689ZM34.8487 14.7109C37.9637 13.8389 40.1587 11.6899 40.1587 8.10792V8.04492C40.1587 6.14292 39.4907 4.52592 38.3147 3.34092C36.8847 1.97392 34.6877 1.16392 31.8927 1.16392H21.9707V22.9639H25.8807V15.3639H30.7777L36.2477 22.9639H40.8587L34.8487 14.7109ZM46.6017 11.6829V22.9629H50.5117V1.16292H46.6017V11.6829ZM84.4157 12.0459V22.9629H88.3277V1.16292H84.4157V12.0459ZM112.277 12.1249C112.277 16.3899 109.223 19.4709 104.554 19.4709H100.164V4.64992H104.554C109.223 4.64992 112.277 7.79592 112.277 12.0599V12.1239V12.1249ZM104.554 1.16392H96.2497V22.9639H104.554C111.546 22.9639 116.384 18.1969 116.384 12.0609V11.9999C116.384 5.86492 111.546 1.16392 104.554 1.16392ZM161.847 11.9689V4.64992H167.54C170.432 4.64992 172.15 5.92592 172.15 8.26292V8.32492C172.15 10.5349 170.367 11.9679 167.571 11.9679L161.847 11.9689ZM170.815 14.7109C173.929 13.8389 176.123 11.6899 176.123 8.10792V8.04492C176.123 6.14292 175.453 4.52592 174.28 3.34092C172.848 1.97392 170.653 1.16392 167.858 1.16392H157.938V22.9639H161.847V15.3639H166.743L172.212 22.9639H176.824L170.814 14.7109H170.815ZM117.957 22.9629H141.522L129.742 0.315918L117.957 22.9629Z" fill="#2D2E2C"/>
<path fill-rule="evenodd" clip-rule="evenodd" d="M123.89 19.4649L129.717 7.99194L135.589 19.4649H123.89Z" fill="#DC3E54"/>
<path fill-rule="evenodd" clip-rule="evenodd" d="M201.736 21.2599C201.957 21.2599 202.089 21.1559 202.089 20.9879V20.9799C202.089 20.8029 201.957 20.7079 201.736 20.7079H201.294V21.2609L201.736 21.2599ZM200.954 20.4069H201.749C201.986 20.4069 202.169 20.4759 202.291 20.5969C202.339 20.6439 202.378 20.7007 202.403 20.7637C202.429 20.8266 202.44 20.8941 202.438 20.9619V20.9699C202.438 21.2519 202.268 21.4269 202.023 21.4959L202.503 22.1559H202.099L201.665 21.5509H201.294V22.1559H200.954V20.4069ZM203.169 21.3299V21.3209C203.169 20.4959 202.513 19.8259 201.646 19.8259C200.775 19.8259 200.116 20.5039 200.116 21.3299V21.3399C200.116 22.1659 200.77 22.8339 201.636 22.8339C202.509 22.8339 203.169 22.1559 203.169 21.3299ZM199.936 21.3399V21.3299C199.936 20.4209 200.691 19.6599 201.646 19.6599C202.604 19.6599 203.348 20.4109 203.348 21.3209V21.3299C203.348 22.2389 202.593 22.9999 201.636 22.9999C200.68 22.9999 199.936 22.2489 199.936 21.3399Z" fill="#2D2E2C"/>
</svg>
