<svg width="44" height="44" viewBox="0 0 44 44" fill="none" xmlns="http://www.w3.org/2000/svg">
<g clip-path="url(#clip0_295_443)">
<path d="M21.618 43.233C9.7 43.233 0 33.591 0 21.615C0 9.7 9.7 0 21.618 0C33.532 0 43.234 9.7 43.234 21.615C43.234 33.591 33.532 43.233 21.618 43.233ZM21.618 1.016C10.24 1.016 1.017 10.239 1.017 21.615C1.017 32.992 10.24 42.214 21.618 42.214C32.994 42.214 42.215 32.992 42.215 21.615C42.215 10.299 32.995 1.016 21.618 1.016ZM39.936 27.778L39.824 27.801L39.761 27.723C39.765 27.689 40.487 25.558 40.481 23.112C40.472 20.477 39.402 18.861 38.025 18.861C37.187 18.861 36.589 19.461 36.589 20.358C36.589 21.975 38.565 22.095 38.565 25.628C38.565 27.066 38.266 28.44 37.787 29.939C35.571 37.422 28.504 40.895 21.62 40.895C18.445 40.895 16.19 40.243 15.518 39.942C15.491 39.928 15.468 39.875 15.489 39.822L15.576 39.761C15.848 39.869 17.785 40.477 20.181 40.477C22.816 40.477 24.373 39.4 24.373 38.08C24.373 37.245 23.714 36.586 22.875 36.586C21.258 36.586 21.138 38.621 17.666 38.621C16.169 38.621 14.853 38.322 13.294 37.843C5.868 35.569 2.329 28.561 2.335 21.615C2.338 18.233 3.285 15.54 3.301 15.513L3.408 15.495L3.471 15.573C3.384 15.853 2.755 17.785 2.755 20.179C2.755 22.814 3.832 24.37 5.209 24.37C5.988 24.37 6.648 23.772 6.648 22.933C6.648 21.316 4.671 21.137 4.671 17.663C4.671 16.166 4.97 14.849 5.449 13.292C7.725 5.868 14.731 2.387 21.618 2.334C24.818 2.31 27.619 3.268 27.724 3.352L27.743 3.46L27.664 3.52C27.631 3.516 25.81 2.754 23.054 2.754C20.479 2.753 18.863 3.831 18.863 5.209C18.863 5.988 19.462 6.647 20.36 6.647C21.977 6.647 22.097 4.67 25.569 4.67C27.066 4.67 28.383 4.969 29.941 5.449C37.426 7.724 40.837 14.791 40.898 21.616C40.932 25.113 39.946 27.759 39.936 27.778ZM29.641 22.635C27.606 22.635 26.048 24.133 26.048 25.928C26.048 27.425 26.945 28.621 28.144 28.621C28.564 28.621 28.982 28.381 28.982 27.843C28.982 27.066 27.95 26.875 28.03 25.711C28.081 24.943 28.804 24.43 29.521 24.43C30.959 24.43 31.631 25.823 31.631 27.259C31.57 29.475 29.941 31.017 28.025 31.017C25.508 31.017 23.894 28.621 23.894 26.047C23.894 22.214 26.408 20.717 27.725 20.359C27.739 20.358 31.169 20.971 31.062 19.459C31.015 18.795 30.026 18.539 29.308 18.51C28.514 18.479 27.714 18.765 27.714 18.765C27.295 18.554 27.006 18.142 26.828 17.664C29.283 15.808 31.018 14.012 31.018 11.976C31.018 10.898 30.299 9.939 28.922 9.939C26.467 9.939 24.61 13.053 24.61 15.867C24.61 16.346 24.61 16.825 24.731 17.246C23.173 18.383 22.016 19.089 19.919 20.347C19.919 20.084 19.974 19.409 20.149 18.531C20.868 17.752 21.854 16.587 21.854 15.689C21.854 15.27 21.616 14.91 21.135 14.91C19.938 14.91 19.039 16.707 18.801 17.964C18.261 18.623 17.184 19.463 16.285 19.463C15.566 19.463 15.328 18.803 15.266 18.565C17.542 17.785 20.357 14.671 20.357 11.857C20.357 11.258 20.118 9.941 18.321 9.941C15.626 9.941 13.35 13.953 13.35 17.066C12.392 17.066 12.033 16.048 12.033 15.271C12.033 14.492 12.332 13.713 12.332 13.475C12.332 13.234 12.212 12.935 11.853 12.935C10.954 12.935 10.415 14.132 10.415 15.51C10.476 17.427 11.733 18.624 13.41 18.744C13.648 19.882 14.667 20.959 15.924 20.959C16.703 20.959 17.661 20.72 18.32 20.122C18.259 20.541 18.2 20.9 18.14 21.259C15.505 22.637 13.589 23.595 11.852 25.151C10.479 26.407 9.7 28.083 9.7 29.401C9.7 31.197 10.839 32.873 13.174 32.873C15.928 32.873 18.025 30.657 19.042 27.604C19.523 26.167 19.714 24.076 19.834 22.159C22.588 20.603 23.894 19.701 25.33 18.682C25.509 18.981 25.691 19.222 25.93 19.401C24.672 20.06 21.679 21.916 21.679 26.287C21.679 29.402 23.776 32.873 27.906 32.873C31.32 32.873 33.655 30.06 33.655 27.366C33.653 24.91 32.275 22.635 29.641 22.635ZM13.174 31.017C12.276 31.058 11.678 30.484 11.678 29.527C11.678 26.952 15.247 24.495 17.942 23.176C17.463 26.77 16.25 30.876 13.174 31.017ZM15.15 16.886C15.15 14.909 17.1 11.153 18.293 11.55C19.7 12.019 17.126 15.808 15.15 16.886ZM26.468 15.987C26.468 13.532 28.13 11.144 29.038 11.598C30.072 12.116 28.265 14.43 26.468 15.987Z" fill="black"/>
</g>
<defs>
<clipPath id="clip0_295_443">
<rect width="43.234" height="43.233" fill="white"/>
</clipPath>
</defs>
</svg>
