<svg width="136" height="33" viewBox="0 0 136 33" fill="none" xmlns="http://www.w3.org/2000/svg">
<g clip-path="url(#clip0_295_457)">
<path d="M59.9956 13.7739H50.4093C50.3672 13.7739 50.333 13.808 50.333 13.8504V27.2194C50.333 27.2615 50.3672 27.2957 50.4093 27.2957H58.9695C58.9979 27.2957 59.024 27.2798 59.0373 27.2545L60.0631 25.2532C60.0895 25.2023 60.0527 25.1419 59.9956 25.1419H52.8372V21.5593H56.0882C56.1175 21.5593 56.1441 21.5425 56.1568 21.5161L57.1924 19.4955C57.2169 19.445 57.1799 19.3863 57.1238 19.3863H52.8372V15.9275H58.9557C58.9842 15.9275 59.0104 15.9117 59.0234 15.8865L60.063 13.8851C60.0894 13.8344 60.0526 13.7739 59.9956 13.7739Z" fill="black"/>
<path d="M90.4969 21.8949L81.8616 13.559C81.767 13.4582 81.5977 13.5251 81.5977 13.6633V27.2195C81.5977 27.2616 81.6319 27.2957 81.674 27.2957H84.0063C84.0485 27.2957 84.0826 27.2616 84.0826 27.2195L84.0839 19.1844L92.7179 27.5336C92.8129 27.6345 92.9819 27.5675 92.9819 27.4292V15.8403C92.9819 15.819 92.9729 15.7987 92.9569 15.7843L90.6249 13.5311C90.5759 13.486 90.4969 13.5205 90.4969 13.5869V21.8949Z" fill="black"/>
<path d="M99.6348 27.251C99.6218 27.278 99.5948 27.2956 99.5648 27.2956H96.6858C96.6298 27.2956 96.5928 27.238 96.6168 27.1874L103.685 13.5993C103.739 13.4813 103.907 13.4808 103.962 13.5986L111.033 27.187C111.057 27.2377 111.02 27.2956 110.964 27.2956H108.157C108.127 27.2956 108.1 27.2779 108.087 27.2508C108.087 27.2508 103.865 18.8246 103.854 18.8246L99.6348 27.251Z" fill="black"/>
<path d="M133.167 27.1744L128.294 22.6057C129.791 21.7783 130.792 20.1723 130.737 18.3439C130.661 15.7806 128.473 13.7739 125.888 13.7739H120.574C120.513 13.7739 120.476 13.8421 120.51 13.8929L123.001 16.2512C123.015 16.2726 123.039 16.2854 123.065 16.2854H125.925C127.109 16.2854 128.129 17.2034 128.188 18.3764C128.249 19.6129 127.268 20.6404 126.042 20.6688H122.868C122.805 20.6688 122.769 20.7392 122.805 20.79L129.587 27.2652C129.601 27.2845 129.625 27.2959 129.649 27.2959H133.104C133.167 27.2956 133.204 27.225 133.167 27.1744Z" fill="black"/>
<path d="M117.267 13.5868V27.2193C117.267 27.2615 117.232 27.2956 117.19 27.2956H114.768C114.726 27.2956 114.692 27.2615 114.692 27.2193V15.8966C114.692 15.8753 114.701 15.8549 114.717 15.8405L117.139 13.5305C117.188 13.486 117.267 13.5207 117.267 13.5868Z" fill="black"/>
<path d="M73.7537 21.895L65.1184 13.559C65.0238 13.4582 64.8545 13.5251 64.8545 13.6634V27.2196C64.8545 27.2616 64.8887 27.2958 64.9307 27.2958H67.263C67.3053 27.2958 67.3392 27.2616 67.3392 27.2196L67.3406 19.1843L75.9747 27.5336C76.0693 27.6345 76.2384 27.5675 76.2384 27.4293V15.8402C76.2384 15.819 76.2296 15.7988 76.2141 15.7843L73.8818 13.5311C73.833 13.486 73.7538 13.5205 73.7538 13.5869L73.7537 21.895Z" fill="black"/>
<path d="M34.4814 23.9354C34.4814 25.7781 36.0068 27.2658 37.8485 27.281L37.8483 27.2851H37.8764H41.5831H41.6114L41.6111 27.281C43.4528 27.2659 44.9782 25.7781 44.9782 23.9354V13.585C44.9782 13.5188 44.8749 13.4867 44.826 13.5316L42.4385 15.796C42.4227 15.8103 42.4035 15.8306 42.4035 15.8519V23.4034C42.4035 24.3294 41.6727 25.1049 40.7456 25.1049H38.7141C37.7871 25.1049 37.0562 24.3797 37.0562 23.4034V21.6239C37.0562 21.5577 36.9509 21.5217 36.902 21.5666L34.5203 23.8233C34.5044 23.8377 34.4815 23.8572 34.4815 23.8786L34.4814 23.9354Z" fill="black"/>
<path d="M0.000100136 23.7892L10.7103 13.5759V26.9382C10.7103 27.2215 11.2778 27.4513 11.9776 27.4513C12.6775 27.4513 13.2493 27.2216 13.2493 26.9382V0L23.9739 10.2178V31.4281C23.9739 32.0191 23.4992 32.4985 22.9105 32.5076L22.9094 32.5084H1.08028C0.48358 32.5084 0 32.0247 0 31.4282L0.000100136 23.7892Z" fill="black"/>
<path d="M135.867 15.0812C135.867 15.8231 135.286 16.4047 134.528 16.4047C133.779 16.4047 133.181 15.8231 133.181 15.0812C133.181 14.3562 133.779 13.7739 134.528 13.7739C135.286 13.7739 135.867 14.3561 135.867 15.0812ZM133.516 15.0812C133.516 15.6636 133.947 16.1256 134.536 16.1256C135.111 16.1256 135.533 15.6636 135.533 15.0895C135.533 14.5073 135.111 14.0374 134.528 14.0374C133.947 14.0373 133.516 14.5073 133.516 15.0812ZM134.321 15.7673H134.018V14.4601C134.137 14.4361 134.305 14.4197 134.52 14.4197C134.768 14.4197 134.879 14.4601 134.975 14.5159C135.046 14.5712 135.102 14.6748 135.102 14.8029C135.102 14.9464 134.99 15.0578 134.831 15.1055V15.1216C134.959 15.1695 135.031 15.2649 135.07 15.4402C135.11 15.6397 135.134 15.7194 135.167 15.7675H134.839C134.8 15.7195 134.776 15.6001 134.735 15.4482C134.712 15.3046 134.632 15.241 134.465 15.241H134.321V15.7673ZM134.329 15.026H134.473C134.64 15.026 134.776 14.9702 134.776 14.8345C134.776 14.7151 134.688 14.6351 134.497 14.6351C134.417 14.6351 134.361 14.6429 134.329 14.6507V15.026Z" fill="black"/>
</g>
<defs>
<clipPath id="clip0_295_457">
<rect width="135.867" height="32.5084" fill="white"/>
</clipPath>
</defs>
</svg>
