<svg width="227" height="36" viewBox="0 0 227 36" fill="none" xmlns="http://www.w3.org/2000/svg">
<g clip-path="url(#clip0_296_489)">
<path d="M209.949 21.6816V19.0783H227V21.6816C226.04 21.7593 225.277 21.973 224.776 22.3033C224.274 22.6336 224.012 23.197 224.012 23.9741V29.5499C224.012 33.4938 224.252 35.592 224.252 35.592H220.873C220.873 35.592 219.434 34.9509 218.452 34.2321C217.362 33.4356 216.752 32.5806 216.752 32.5806H216.512C216.512 32.5806 213.285 36 207.42 36C201.816 36 198.197 35.0676 195.013 32.6583C189.475 28.462 189.235 20.1274 189.235 17.6212V17.5988C189.235 15.4551 189.235 8.55153 195.362 3.92445C198.393 1.63196 202.906 0 209.665 0C217.013 0 220.436 1.06856 222.399 1.76794L222.922 12.5699H219.848C219.848 12.5699 218.213 9.16998 217.515 7.8489C215.901 4.79871 213.612 3.8856 210.014 3.8856C208.052 3.8856 205.283 4.21587 203.604 5.82837C200.899 8.43813 200.926 13.8712 200.942 17.0494V17.0552V17.09C200.943 17.3033 200.944 17.5079 200.944 17.6989C200.944 28.7728 202.732 30.4047 205.981 31.4733C208.074 32.1726 212.871 31.92 215.008 30.1329C215.008 30.1329 214.659 29.006 214.659 27.8791V24.3432C214.659 22.9488 214.002 22.5779 213.306 22.1845L213.241 22.1479C212.522 21.7593 210.581 21.6816 209.949 21.6816Z" fill="black"/>
<path fill-rule="evenodd" clip-rule="evenodd" d="M170.895 32.8125C171.68 32.8125 173.577 32.8125 174.558 32.3268C175.635 31.7997 175.26 30.7443 173.987 27.1646L173.861 26.8093L172.705 23.6036H160.386L159.034 27.4892C157.791 31.0446 158.881 32.0355 159.797 32.385C160.647 32.6958 162.871 32.8512 163.722 32.832V35.7654H150.247V32.7348C150.727 32.7348 152.188 32.4627 153.278 31.2582C154.259 30.1704 155.087 28.4801 155.851 26.4596C156.592 24.439 165.575 0.348389 165.575 0.348389H176.216C176.564 1.65006 177.044 3.2043 177.676 5.22483C178.309 7.22586 179.05 9.49896 179.9 12.0246C180.751 14.5502 181.688 17.2701 182.713 20.1649C183.738 23.0597 184.828 26.0516 185.962 29.1212C186.267 29.9566 186.834 31.3941 187.968 32.2101C188.827 32.7495 189.774 32.7747 190.275 32.7882H190.282C190.338 32.7897 190.388 32.7912 190.432 32.793V35.7462H170.895V32.8125ZM161.56 20.9516L167.032 6.1086H167.272L171.764 20.9516H161.56Z" fill="black"/>
<path d="M156.617 0.349854H113.271V3.28347C114.579 3.28347 115.844 3.45831 116.237 4.23546C116.782 5.28453 116.128 7.59648 114.667 10.8604C112.53 15.6202 110.982 18.923 110.982 18.923H110.677C109.073 15.8354 107.731 13.225 106.645 11.1114L106.604 11.0311C106.141 10.132 105.725 9.32238 105.356 8.60673C104.113 6.19767 103.481 4.70172 103.481 4.13829C103.481 3.67203 103.568 3.26403 106.599 3.26403V0.349854H87.4336V3.24465C88.8508 3.24465 89.9192 3.38061 90.5515 3.65262C91.1837 3.92463 91.7288 4.46859 92.165 5.26512C93.9092 8.50962 95.5881 11.6958 97.2016 14.8431C98.8152 17.9904 101.868 24.0714 101.868 24.0714V30.4048C101.868 30.9295 101.759 31.3567 101.541 31.6678C101.323 31.9786 100.952 32.2312 100.472 32.4061C99.9925 32.5807 99.3385 32.6974 98.5535 32.7556C97.8121 32.8141 96.9182 32.8333 95.8716 32.8333V35.767H117.501V32.8141C117.022 32.7946 116.585 32.7751 116.171 32.7556C115.343 32.6974 114.688 32.5807 114.165 32.3866C113.664 32.2117 113.271 31.9591 113.053 31.6288C112.813 31.318 112.704 30.8905 112.704 30.3661V23.2165L120.423 8.21817C121.033 6.97479 121.993 5.1291 122.908 4.5657C123.794 4.02072 124.864 4.02108 126.61 4.02171L126.79 4.02174C129.624 4.0023 130.169 4.37145 130.627 4.896C131.019 5.3817 131.129 6.45021 131.107 7.94622V30.4438C131.107 31.279 130.605 31.8814 129.602 32.2504C128.774 32.5615 127.487 32.7361 125.787 32.7946V35.767H147.285V32.7946C145.585 32.7361 144.298 32.5615 143.469 32.2504C142.467 31.8619 141.965 31.2598 141.965 30.4438V7.94622C141.965 6.43083 142.052 5.3817 142.423 4.93485C142.881 4.37145 143.404 4.02174 146.261 4.02174C148.55 4.02174 149.466 4.06059 150.164 4.5657C151.246 5.34513 152.071 7.02843 152.675 8.26131L152.758 8.43186L154.437 11.6764H157.206L156.617 0.349854Z" fill="black"/>
<path fill-rule="evenodd" clip-rule="evenodd" d="M88.1315 29.1224C88.4367 29.9578 89.0036 31.3955 90.1374 32.2115C91.0264 32.801 92.0525 32.7965 92.5283 32.7944H92.6013V35.7473H73.0649V32.8136C73.8499 32.8136 75.7468 32.8136 76.7281 32.3279C77.8006 31.793 77.4171 30.7313 76.0551 26.961L75.9867 26.7716L74.8309 23.566H62.5118L61.1599 27.4516C59.9173 31.007 61.0072 31.9976 61.9231 32.3474C62.7735 32.6582 64.9975 32.8136 65.8478 32.7944V35.7278H32.4877V32.7944C33.2509 32.7944 35.1043 32.7944 35.8458 32.4446C36.8485 31.9784 36.9577 31.1039 36.9577 30.191V6.79966H36.5433L26.6444 35.7473H21.1716L9.8772 6.79966H9.52836V29.5498C9.52836 30.7349 9.92079 31.5896 10.7057 32.0753C11.5125 32.561 12.8425 32.8136 14.7613 32.8136V35.7473H0V32.8136C1.87509 32.8136 3.29239 32.561 4.22999 32.0948C5.1675 31.6091 5.64721 30.7931 5.64721 29.6081V5.65342C5.64721 3.88549 4.14272 3.24439 0.13085 3.24439V0.349609H18.8604L27.1677 22.4586H27.5166L34.6028 0.349609H53.3324V3.24439C49.3204 3.24439 47.816 3.88549 47.816 5.65342V30.2105C47.816 32.4056 48.7317 32.8331 51.3701 32.8331C52.5474 32.8331 54.2699 32.7167 55.3601 31.5119C56.3632 30.4241 57.2353 28.4813 57.9985 26.4608C58.7614 24.4403 67.7448 0.349609 67.7448 0.349609H78.3849C78.734 1.65128 79.2135 3.20551 79.846 5.22604C80.4783 7.2271 81.2197 9.5002 82.07 12.0258C82.9203 14.5514 83.8578 17.2714 84.8827 20.1661C85.9075 23.0609 86.9978 26.0528 88.1315 29.1224ZM69.0967 5.90608L63.6238 20.749H73.8281L69.3365 5.90608H69.0967Z" fill="black"/>
</g>
<defs>
<clipPath id="clip0_296_489">
<rect width="227" height="36" fill="white"/>
</clipPath>
</defs>
</svg>
