<svg width="100" height="39" viewBox="0 0 100 39" fill="none" xmlns="http://www.w3.org/2000/svg">
<g clip-path="url(#clip0_296_497)">
<path d="M0 38.3H100V0H0V38.3Z" fill="#8C0014"/>
<path d="M79.6167 21.127V22.105C79.6167 22.927 80.3587 23.682 81.5237 23.682C83.1947 23.682 83.8657 22.419 84.0027 21.89C85.8087 21.89 87.2297 21.889 87.7407 21.889C87.1837 23.621 84.8867 25.678 80.6627 25.678C75.1577 25.678 73.4317 22.696 73.4317 20.417C73.4317 17.986 75.4257 15.093 80.6537 15.093C85.1737 15.093 87.8757 17.713 87.8757 20.418C87.8757 20.87 87.8377 21.127 87.8377 21.127H79.6167ZM79.6167 19.483H81.7107V18.142C81.7107 17.737 81.3877 17.096 80.6567 17.096C79.9787 17.096 79.6167 17.71 79.6167 18.136V19.483ZM64.2777 23.111H62.7897V25.209H72.8447V23.111H71.3367V12.443H62.7897V14.542H64.2777V23.111ZM53.9187 21.127V22.105C53.9187 22.927 54.6627 23.682 55.8277 23.682C57.4977 23.682 58.1697 22.419 58.3057 21.89C60.1127 21.89 61.5337 21.889 62.0447 21.889C61.4877 23.621 59.1897 25.678 54.9667 25.678C49.4607 25.678 47.7357 22.696 47.7357 20.417C47.7357 17.986 49.7277 15.093 54.9587 15.093C59.4767 15.093 62.1807 17.713 62.1807 20.418C62.1807 20.87 62.1417 21.127 62.1417 21.127H53.9187ZM53.9187 19.483H56.0137V18.142C56.0137 17.737 55.6907 17.096 54.9597 17.096C54.2827 17.096 53.9187 17.71 53.9187 18.136V19.483ZM44.4347 13.76L43.4617 11.908L40.3897 13.492L41.3627 15.362L44.4347 13.76ZM45.6557 15.611H37.3957V17.71H38.9017V23.111H37.3957V25.209H47.1627V23.111H45.6557V15.611ZM28.5237 12.443H36.0407V14.543H34.5337V23.111H36.0407V25.209H26.2707V23.111H27.7787V17.558L22.2277 25.209L16.6557 17.558V23.111H18.1637V25.209H12.7627V23.111H14.2517V14.543H12.7627V12.443H21.2917L24.9167 17.424L28.5237 12.443Z" fill="white"/>
</g>
<defs>
<clipPath id="clip0_296_497">
<rect width="100" height="38.3" fill="white"/>
</clipPath>
</defs>
</svg>
