<svg width="120" height="19" viewBox="0 0 120 19" fill="none" xmlns="http://www.w3.org/2000/svg">
<g clip-path="url(#clip0_296_505)">
<path d="M0 13.835V12.482H4.609V14.2C4.60171 14.4228 4.64233 14.6447 4.72813 14.8505C4.81393 15.0563 4.9429 15.2413 5.10633 15.3929C5.26976 15.5446 5.46384 15.6594 5.67546 15.7297C5.88708 15.7999 6.11131 15.8239 6.333 15.8C6.71103 15.8474 7.09298 15.75 7.40218 15.5274C7.71138 15.3048 7.92494 14.9735 8 14.6C8.12345 14.1664 8.11299 13.7056 7.97 13.278C7.076 10.976 0.981 9.931 0.208 6.333C0.0501521 5.54166 0.0403194 4.72792 0.179 3.933C0.654 1.045 3.122 0 6.184 0C8.622 0 11.984 0.585 11.984 4.458V5.719H7.7V4.612C7.71625 4.3973 7.68584 4.18163 7.61086 3.9798C7.53588 3.77796 7.4181 3.59475 7.26561 3.44274C7.11313 3.29073 6.92955 3.17352 6.72748 3.09917C6.52541 3.02482 6.30965 2.99508 6.095 3.012C5.72936 2.97561 5.36351 3.0792 5.07123 3.3019C4.77895 3.52459 4.58197 3.84981 4.52 4.212C4.47196 4.51849 4.48214 4.83128 4.55 5.134C5.05 7.193 11.567 8.301 12.28 12.021C12.4585 12.9857 12.4684 13.974 12.309 14.942C11.892 17.893 9.336 19 6.244 19C3 19 0 17.8 0 13.835ZM55.837 13.773V12.421H60.386V14.112C60.3751 14.3333 60.4122 14.5543 60.4948 14.7598C60.5775 14.9653 60.7037 15.1505 60.8648 15.3026C61.0259 15.4546 61.2181 15.57 61.428 15.6407C61.638 15.7113 61.8607 15.7357 62.081 15.712C62.4549 15.7645 62.8347 15.6731 63.1438 15.4563C63.4528 15.2394 63.6681 14.9134 63.746 14.544C63.8693 14.1206 63.8591 13.6695 63.717 13.252C62.854 10.978 56.817 9.933 56.046 6.335C55.8882 5.5548 55.878 4.75194 56.016 3.968C56.492 1.109 58.96 0.068 61.962 0.068C64.371 0.068 67.701 0.683 67.701 4.495V5.725H63.449V4.643C63.4659 4.43073 63.437 4.2173 63.3642 4.01719C63.2914 3.81709 63.1764 3.63498 63.027 3.48322C62.8776 3.33147 62.6973 3.21362 62.4984 3.13766C62.2995 3.0617 62.0865 3.02942 61.874 3.043C61.5154 3.00076 61.1544 3.09869 60.8663 3.31634C60.5782 3.53399 60.3854 3.85452 60.328 4.211C60.2795 4.51742 60.2894 4.83024 60.357 5.133C60.832 7.194 67.284 8.27 68 11.959C68.1783 12.9133 68.1881 13.8914 68.029 14.849C67.613 17.801 65.086 18.877 62.024 18.877C58.811 18.877 55.837 17.678 55.837 13.773ZM72.13 14.42C72.0882 14.0315 72.0781 13.6402 72.1 13.25V0.523H76.441V13.65C76.4354 13.8761 76.4451 14.1022 76.47 14.327C76.5582 14.6943 76.7675 15.0213 77.0642 15.2552C77.3609 15.4891 77.7277 15.6162 78.1055 15.6162C78.4833 15.6162 78.8501 15.4891 79.1468 15.2552C79.4435 15.0213 79.6528 14.6943 79.741 14.327C79.7668 14.1023 79.7768 13.8761 79.771 13.65V0.523H84.112V13.25C84.112 13.589 84.082 14.234 84.082 14.419C83.782 17.738 81.257 18.819 78.106 18.819C74.955 18.819 72.428 17.739 72.13 14.419V14.42ZM107.869 14.235C107.825 13.8472 107.806 13.4572 107.81 13.067V5.6C107.81 5.292 107.839 4.739 107.869 4.431C108.255 1.112 110.842 0.066 113.905 0.066C116.938 0.066 119.613 1.111 119.911 4.431C119.947 4.81959 119.956 5.21012 119.94 5.6V6.184H115.6V5.2C115.601 4.97302 115.581 4.74645 115.541 4.523C115.436 4.15057 115.212 3.8227 114.903 3.5892C114.594 3.3557 114.218 3.22935 113.831 3.22935C113.444 3.22935 113.068 3.3557 112.759 3.5892C112.45 3.8227 112.226 4.15057 112.121 4.523C112.071 4.79632 112.051 5.07434 112.062 5.352V13.469C112.057 13.6951 112.067 13.9212 112.092 14.146C112.19 14.5425 112.427 14.8907 112.759 15.1276C113.092 15.3645 113.498 15.4742 113.905 15.437C114.305 15.4753 114.705 15.3648 115.029 15.1266C115.352 14.8884 115.577 14.5393 115.659 14.146C115.699 13.9227 115.709 13.695 115.689 13.469V10.883H113.935V8.3H120V13.065C120.004 13.4552 119.984 13.8453 119.94 14.233C119.64 17.461 116.94 18.599 113.904 18.599C110.868 18.599 108.166 17.462 107.869 14.235ZM47.369 18.262L47.245 1.845L44.272 18.262H39.931L36.987 1.845L36.869 18.262H32.587L32.943 0.554H39.931L42.1 14.388L44.272 0.554H51.259L51.645 18.262H47.369ZM24.534 18.262L22.211 1.845L19.831 18.262H15.194L18.344 0.554H25.986L29.138 18.262H24.534ZM97.199 18.078L92.884 3.352L93.122 18.078H88.9V0.554H95.263L99.307 14.819L99.068 0.554H103.319V18.078H97.199Z" fill="black"/>
</g>
<defs>
<clipPath id="clip0_296_505">
<rect width="120.001" height="19" fill="white"/>
</clipPath>
</defs>
</svg>
