<svg width="470" height="82" viewBox="0 0 470 82" fill="none" xmlns="http://www.w3.org/2000/svg">
<g clip-path="url(#clip0_296_512)">
<path d="M129.84 51.0407C122.171 51.0407 112.825 50.7065 112.825 39.018V38.2306H127.436V43.5159H130.176V38.4572C127.773 37.6122 124.972 36.8247 122.174 35.8721C117.701 34.2973 113.445 32.2769 113.277 26.0427C113.108 17.7229 119.044 14.3542 128.891 14.3542C141.707 14.3542 144.619 19.244 144.619 25.0287V26.3769H130.176V21.9981H127.436V26.3769C129.281 26.9416 131.967 27.7251 134.991 28.624C140.142 30.0836 145.346 32.2769 145.346 39.0142C145.346 48.1714 138.688 51.0368 129.844 51.0368" fill="#EE4124"/>
<path d="M176.226 46.4353C174.714 49.1318 172.139 50.818 168.392 50.818C164.646 50.818 162.457 49.6388 161.117 47.8412V59.184H147.738V23.3464H161.002V26.1543C162.07 24.4104 164.416 22.7818 168.561 22.8394C171.186 22.8394 173.092 23.6306 174.603 25.0864C177.064 27.4449 177.623 30.8174 177.623 36.5483C177.623 40.6468 177.512 44.073 176.226 46.4353ZM163.972 30.8135H161.121V42.5558H163.972V30.8135Z" fill="#EE4124"/>
<path d="M204.538 49.0164C201.235 50.7026 197.542 50.8717 194.687 50.8717C182.54 50.8717 179.686 45.256 179.686 36.7133C179.686 27.1643 183.773 22.5012 195.188 22.5012C202.019 22.5012 206.103 24.2412 208.342 27.8365C209.237 29.3538 210.022 31.3742 210.022 36.1487V38.1153H193.451V44.3533H196.306V40.8656H210.022C210.022 44.2381 207.668 47.4415 204.538 49.0126M196.306 28.3973H193.451V33.4561H196.306V28.3973Z" fill="#EE4124"/>
<path d="M236.928 49.0164C233.626 50.7026 229.933 50.8717 227.078 50.8717C214.931 50.8717 212.08 45.256 212.08 36.7133C212.08 27.1643 216.163 22.5012 227.587 22.5012C234.41 22.5012 238.497 24.2412 240.736 27.8365C241.632 29.3538 242.416 31.3742 242.416 36.1487V38.1153H225.849V44.3533H228.704V40.8656H242.412C242.412 44.2381 240.063 47.4415 236.928 49.0126M228.7 28.3973H225.846V33.4561H228.7V28.3973Z" fill="#EE4124"/>
<path d="M260.755 50.0267V47.5031C259.243 49.1855 256.897 50.5914 253.422 50.5914C251.241 50.5914 249.282 50.1996 247.437 48.4019C244.919 45.9859 244.528 41.607 244.471 37.2781C244.417 32.1694 244.861 28.6855 246.262 26.4923C247.938 23.8496 250.345 22.7818 253.594 22.7818C256.843 22.7818 259.189 23.7958 260.758 25.4782V15.3684H274.191V50.0267M260.755 30.7559H257.957V42.3292H260.755V30.7559Z" fill="#EE4124"/>
<path d="M308.978 51.0408C303.158 51.0408 299.633 49.6349 297.115 47.3302C293.866 44.3534 293.418 39.3523 293.418 32.6687C293.418 18.4566 296.832 14.3005 309.483 14.3005C322.135 14.3005 325.545 18.4566 325.545 32.6687C325.545 36.2064 325.319 40.9847 324.198 43.6812H327.279V51.0408M310.823 22.2747H308.083V43.6812H310.823V22.2747Z" fill="#EE4124"/>
<path d="M345.001 50.0268V47.3879C343.042 49.3546 340.524 50.7067 337.056 50.5914C333.811 50.5338 331.236 48.909 330.003 46.7119C329.33 45.5365 328.66 43.6813 328.66 40.3126V23.3464H342.204V42.4483H345.001V23.3464H358.437V50.0229" fill="#EE4124"/>
<path d="M385.444 49.0164C382.145 50.7026 378.448 50.8717 375.593 50.8717C363.447 50.8717 360.596 45.256 360.596 36.7133C360.596 27.1643 364.679 22.5012 376.099 22.5012C382.922 22.5012 387.009 24.2412 389.248 27.8365C390.143 29.3538 390.932 31.3742 390.932 36.1487V38.1153H374.365V44.3533H377.22V40.8656H390.936C390.936 44.2381 388.582 47.4415 385.448 49.0126M377.22 28.3973H374.365V33.4561H377.22V28.3973Z" fill="#EE4124"/>
<path d="M417.838 49.0164C414.532 50.7026 410.839 50.8717 407.984 50.8717C395.841 50.8717 392.986 45.256 392.986 36.7133C392.986 27.1643 397.07 22.5012 408.489 22.5012C415.316 22.5012 419.404 24.2412 421.642 27.8365C422.538 29.3538 423.322 31.3742 423.322 36.1487V38.1153H406.756V44.3533H409.61V40.8656H423.326C423.326 44.2381 420.973 47.4415 417.846 49.0126M409.607 28.3973H406.752V33.4561H409.607V28.3973Z" fill="#EE4124"/>
<path d="M441.715 50.0267V30.8173H438.86V50.0267H425.481V23.3464H438.466V25.9314C439.53 24.4103 442.159 22.5013 446.472 22.5013C452.124 22.4475 455.259 26.1542 455.259 31.6009V50.0229" fill="#EE4124"/>
<path d="M459.093 45.7209C459.093 42.6211 461.599 40.3318 464.561 40.3318C467.524 40.3318 470 42.6172 470 45.7209C470 48.8245 467.493 51.1407 464.561 51.1407C461.63 51.1407 459.093 48.8514 459.093 45.7209ZM464.561 50.238C466.995 50.238 468.917 48.3213 468.917 45.7209C468.917 43.1204 466.995 41.2344 464.561 41.2344C462.128 41.2344 460.176 43.1627 460.176 45.7209C460.176 48.279 462.097 50.238 464.561 50.238ZM463.421 48.8514H462.48V42.6211H464.845C466.31 42.6211 467.037 43.1627 467.037 44.3918C467.037 45.5058 466.341 45.9936 465.43 46.105L467.194 48.8475H466.138L464.5 46.1472H463.413V48.8475L463.421 48.8514ZM464.546 45.3483C465.346 45.3483 466.058 45.2907 466.058 44.3342C466.058 43.5622 465.361 43.42 464.707 43.42H463.425V45.3483H464.55H464.546Z" fill="#EE4124"/>
<path d="M74.3342 65.7636C88.712 59.5257 98.4094 48.2251 98.4056 35.3881C98.4056 25.6586 92.8871 16.8164 83.9704 10.3979C75.0575 3.98323 62.7463 0 49.2028 0C35.6555 0 23.3519 3.98323 14.4352 10.4017C5.51843 16.8202 0 25.6625 0 35.392C0 45.1215 5.51843 53.9215 14.4352 60.3285C23.3519 66.7393 35.6593 70.7263 49.2066 70.7225C49.9567 70.7225 50.7565 70.7225 51.5602 70.6687V70.7801L51.564 70.6687C51.6405 70.6687 51.7132 70.6687 51.7821 70.6687C52.8613 70.6687 53.1636 70.8493 53.6841 71.9478C54.262 73.104 54.9508 74.5521 55.2991 75.3011C56.3477 77.3292 58.3109 81.9385 65.2759 82.0038C70.58 81.8848 75.7655 81.9462 81.0658 81.8848C81.7278 81.8809 81.9574 81.5544 81.9574 81.2817C81.9574 81.1511 81.9039 81.0205 81.8005 80.936C80.1243 79.6608 78.5553 78.2011 77.6789 76.3805C76.6418 74.241 75.0269 70.8339 73.764 68.1759C73.4884 67.6727 73.3507 67.2693 73.3469 66.9236C73.3469 66.3705 73.7257 66.0133 74.3342 65.7675V65.7636ZM70.5723 56.2262C70.3236 56.4374 70.1284 56.5027 69.9715 56.5027C69.5008 56.5258 69.1793 55.7844 69.0033 55.4579C65.7848 48.5247 62.3253 41.7029 59.2178 34.7659C59.0877 34.401 59.0227 34.1513 58.4831 34.1782H56.8031L56.8834 34.3395C57.2852 35.15 57.6909 36.0142 58.0927 36.8286C58.506 37.7581 58.6859 38.6031 58.6859 39.3253C58.6783 41.096 57.6258 42.137 56.1487 42.1447C54.9087 42.1447 53.3512 41.3841 51.8855 39.5942C51.254 38.8451 50.9134 38.3304 50.3356 37.4662C49.8189 36.6019 49.3023 35.6801 48.7856 34.7544C48.6249 34.4087 48.4297 34.159 47.9361 34.1743H46.3785L46.4512 34.3357C46.7995 35.0924 47.2013 35.899 47.607 36.6557C48.1733 37.881 48.4144 38.9028 48.4144 39.7286C48.4068 41.6415 47.1554 42.5057 45.5672 42.5172C43.8642 42.5172 41.8015 41.4648 40.6611 39.4943C39.7426 37.931 38.8165 36.3138 37.9516 34.7544C37.6493 34.1897 37.2168 34.1667 36.7729 34.1167C36.4553 34.1167 36.1147 34.1782 35.7818 34.1782H35.6019L35.6823 34.3395C40.0603 43.3047 44.4957 52.3812 48.9311 61.4577L49.0344 61.4078L48.9349 61.4616C49.1071 61.8111 49.1913 62.0915 49.1913 62.2836C49.1798 62.6024 49.0191 62.7292 48.4986 62.7445C48.4527 62.7445 48.3991 62.7445 48.3455 62.7445C30.359 62.4564 16.0195 50.1726 16.0195 35.2767C16.0501 20.1505 30.8756 7.75136 49.2066 7.75136C67.5376 7.75136 82.3593 20.1505 82.3937 35.2767C82.3937 43.7963 78.0387 51.1559 70.5762 56.23L70.5723 56.2262Z" fill="#EE4124"/>
<path d="M55.3676 25.2708C53.8751 25.2708 52.6581 26.4922 52.6543 27.9903C52.6543 29.4921 53.8713 30.7098 55.3676 30.7136C56.8601 30.7136 58.0732 29.4921 58.077 27.9903C58.077 26.4922 56.8601 25.2708 55.3676 25.2708Z" fill="#EE4124"/>
<path d="M44.8822 25.2708C43.3897 25.2708 42.1728 26.4922 42.1689 27.9903C42.1689 29.4921 43.3897 30.7098 44.8822 30.7136C46.3135 30.7136 47.5343 29.4921 47.5343 27.9903C47.5343 26.4922 46.3135 25.2708 44.8822 25.2708Z" fill="#EE4124"/>
<path d="M34.1091 25.2708C32.6778 25.2708 31.457 26.4922 31.457 27.9903C31.457 29.4921 32.6778 30.7098 34.1091 30.7136C35.6016 30.7136 36.8186 29.4921 36.8186 27.9903C36.8186 26.4922 35.6016 25.2708 34.1091 25.2708Z" fill="#EE4124"/>
</g>
<defs>
<clipPath id="clip0_296_512">
<rect width="470" height="82" fill="white"/>
</clipPath>
</defs>
</svg>
