<svg width="147" height="45" viewBox="0 0 147 45" fill="none" xmlns="http://www.w3.org/2000/svg">
<g clip-path="url(#clip0_300_630)">
<path d="M141.66 0C141.66 0 111.31 6.44 70.91 6.15H70.75C30.35 6.44 0 0 0 0C0 0 6.76 11.61 6.79 22.04C6.75 32.47 0 44.08 0 44.08C0 44.08 30.35 37.64 70.75 37.93H70.91C111.31 37.64 141.66 44.08 141.66 44.08C141.66 44.08 134.9 32.47 134.87 22.04C134.91 11.61 141.66 0 141.66 0ZM70.83 36.52C36.15 36.52 8.03 30.04 8.03 22.04C8.03 14.04 36.15 7.56 70.83 7.56C105.51 7.56 133.63 14.04 133.63 22.04C133.63 30.04 105.51 36.52 70.83 36.52Z" fill="#28306A"/>
<path d="M24.07 23.4201C22.14 23.1301 21.35 22.0101 21.35 20.6101C21.35 18.0301 23.88 17.3301 27.12 17.3301C31.56 17.3301 33.39 18.4901 33.53 20.6001H28.95C28.95 20.2001 28.71 19.9501 28.35 19.8101C28 19.6601 27.56 19.6001 27.12 19.6001C25.95 19.6001 25.54 19.8901 25.54 20.3101C25.54 20.5901 25.67 20.7701 26.06 20.8301L30.76 21.5301C32.74 21.8201 33.97 22.7401 33.97 24.4301C33.97 26.8601 31.99 28.0001 27.56 28.0001C24.53 28.0001 21.22 27.5801 21.21 24.6501H25.96C25.97 24.9801 26.1 25.2101 26.38 25.3601C26.67 25.5001 27.11 25.5701 27.72 25.5701C28.95 25.5701 29.28 25.2401 29.28 24.7601C29.28 24.4701 29.1 24.1701 28.57 24.0901L24.08 23.4201H24.07Z" fill="#231F20"/>
<path d="M35.0596 17.6802H38.9996V23.7102C38.9996 24.9902 39.7396 25.4002 41.0196 25.4002C42.2996 25.4002 43.0396 25.0002 43.0396 23.7102V17.6802H46.9796V23.8702C46.9796 27.0402 45.0696 28.0002 41.0196 28.0002C36.9696 28.0002 35.0596 27.0402 35.0596 23.8702V17.6802Z" fill="#231F20"/>
<path d="M48.7004 17.6802H57.6604C59.7004 17.6802 60.6104 18.5702 60.6104 20.1602C60.6104 21.0402 60.1804 21.8102 59.4204 22.1002V22.1302C60.7004 22.4602 61.1204 23.6702 61.1204 24.4102C61.1204 26.3602 60.1404 27.6502 57.2204 27.6502H48.6904V17.6802H48.7004ZM52.5504 21.3902H55.5204C56.3204 21.3902 56.5004 21.1302 56.5004 20.7302C56.5004 20.3702 56.3204 20.1002 55.5204 20.1002H52.5504V21.3902ZM52.5504 25.2202H55.9104C56.6904 25.2202 56.9304 24.8802 56.9304 24.4402C56.9304 24.0002 56.6904 23.6602 55.9104 23.6602H52.5504V25.2302V25.2202Z" fill="#231F20"/>
<path d="M62.5303 22.3301H67.6003V24.7601H62.5303V22.3301Z" fill="#231F20"/>
<path d="M68.7295 25.5402L74.6995 20.1902H69.1295V17.6802H79.9995V19.8602L74.1695 25.1402H79.8495V27.6502H68.7295V25.5402Z" fill="#231F20"/>
<path d="M81.2803 17.6802H91.8703V20.1102H85.2103V21.4502H90.6603V23.8802H85.2103V25.2202H91.8703V27.6502H81.2803V17.6802Z" fill="#231F20"/>
<path d="M99.6499 24.4002H97.1099V27.6502H93.1699V17.6802H101.46C102.59 17.6802 103.28 17.7802 103.82 18.0402C104.56 18.4002 105.09 19.7202 105.17 20.8002C105.25 21.8302 105.17 23.6402 103.52 24.0902V24.1202L105.46 27.6402H101.12L99.6399 24.3902L99.6499 24.4002ZM97.1099 22.0602H99.8999C100.67 22.0602 100.99 21.7502 100.99 21.1302C100.99 20.3802 100.5 20.1902 99.8499 20.1902H97.1099V22.0602Z" fill="#231F20"/>
<path d="M112.89 17.3301C115.28 17.3301 119.7 17.5001 119.7 22.6601C119.7 27.8201 115.28 27.9901 112.89 27.9901C110.5 27.9901 106.08 27.8201 106.08 22.6601C106.08 17.5001 110.5 17.3301 112.89 17.3301ZM112.89 25.4801C114.5 25.4801 115.51 24.6801 115.51 22.6601C115.51 20.6401 114.49 19.8401 112.89 19.8401C111.29 19.8401 110.27 20.6401 110.27 22.6601C110.27 24.6801 111.29 25.4801 112.89 25.4801Z" fill="#231F20"/>
<path d="M144.17 39.5898C145.33 39.5898 146.26 40.5198 146.26 41.6798C146.26 42.8398 145.32 43.7698 144.17 43.7698C143.02 43.7698 142.08 42.8398 142.08 41.6798C142.08 40.5198 143.02 39.5898 144.17 39.5898ZM144.17 43.1398C144.94 43.1398 145.57 42.5798 145.57 41.6698C145.57 40.7598 144.94 40.1998 144.17 40.1998C143.4 40.1998 142.77 40.7598 142.77 41.6698C142.77 42.5798 143.4 43.1398 144.17 43.1398ZM143.96 41.8998H143.84V42.7898H143.32V40.5598H144.17C144.78 40.5598 145.14 40.7098 145.14 41.2498C145.14 41.6998 144.89 41.8598 144.52 41.8698L145.06 42.7898H144.48L143.96 41.8998ZM144.27 41.4698C144.47 41.4698 144.58 41.4198 144.58 41.1798C144.58 40.9798 144.33 40.9698 144.16 40.9698H143.85V41.4598H144.28L144.27 41.4698Z" fill="#231F20"/>
</g>
<defs>
<clipPath id="clip0_300_630">
<rect width="146.26" height="44.08" fill="white"/>
</clipPath>
</defs>
</svg>
