<svg width="600" height="121" viewBox="0 0 600 121" fill="none" xmlns="http://www.w3.org/2000/svg">
<g clip-path="url(#clip0_297_565)">
<path d="M580.259 22.4L556.259 22.9L549.859 0.299988C548.359 0.0999878 546.759 0 545.259 0C543.659 0 542.159 0.0999878 540.659 0.299988L534.259 22.9L510.259 22.4C508.959 25.2 507.959 28.1 507.359 31.2L526.459 43.7L518.959 66.8C521.259 68.9 523.759 70.7 526.459 72.3L545.159 56.9L563.959 72.3C566.659 70.8 569.159 68.9 571.459 66.8L563.859 43.7L583.059 31.2C582.459 28.1 581.559 25.1 580.259 22.4Z" fill="black"/>
<path d="M488.46 114.5C488.46 111.2 491.16 108.5 494.46 108.5C497.76 108.5 500.46 111.2 500.46 114.5C500.46 117.8 497.76 120.5 494.46 120.5C491.16 120.6 488.46 117.9 488.46 114.5ZM499.76 114.5C499.76 111.6 497.36 109.2 494.46 109.2C491.56 109.2 489.16 111.6 489.16 114.5C489.16 117.5 491.56 119.8 494.46 119.8C497.46 119.8 499.76 117.5 499.76 114.5ZM497.56 117.9H496.56L494.66 114.8H493.16V117.9H492.36V111.2H495.36C495.96 111.2 496.46 111.2 496.96 111.5C497.46 111.8 497.76 112.4 497.76 113C497.76 114.3 496.86 114.8 495.66 114.9L497.56 117.9ZM494.36 114.1C495.26 114.1 496.76 114.3 496.76 112.9C496.76 111.9 495.86 111.7 494.96 111.7H493.06V114.1H494.36Z" fill="black"/>
<path fill-rule="evenodd" clip-rule="evenodd" d="M68.6595 50.6001L69.2595 47.4C69.6595 45.5 69.8595 43.8 67.5595 43.8H4.95951C3.45951 43.8 1.75951 43.6001 1.35951 45.7001L0.0595102 50.8C-0.34049 52.5 1.35951 52.9 2.65951 52.9H9.05951C19.7595 52.9 24.4595 53.3001 21.4595 65.5001L9.25951 116.6C9.25951 117.7 7.75951 120.5 12.0595 120.5H27.2595C29.3595 120.5 30.8595 120.1 31.5595 117.7L43.7595 65.5001C45.2595 59.5001 46.9595 52.9 56.3595 52.9H65.3595C66.5595 53 67.8595 53.6001 68.6595 50.6001Z" fill="black"/>
<path fill-rule="evenodd" clip-rule="evenodd" d="M282.859 70.5H226.359H222.059C220.559 70.5 219.759 71.3 219.459 72.4L208.759 117.7C208.159 120 210.659 120.5 212.159 120.5H224.559C227.559 120.5 227.959 119.2 228.459 117.7L236.759 82C237.359 79.2 239.559 77.7 241.659 77.7C243.759 77.7 246.359 79.4 245.559 82.8L237.259 117.7C236.859 120.5 239.659 120.5 240.659 120.5H252.659C254.359 120.5 256.259 120.3 256.759 117.7L265.059 82C265.659 79.2 267.859 77.7 270.159 77.7C272.559 77.7 274.659 79.4 273.759 82.8L265.659 117.9C265.059 120.5 267.759 120.5 268.859 120.5H280.659C282.559 120.3 284.759 120.3 285.159 117.7L293.359 82.8C295.659 73.5 288.759 70.5 282.859 70.5Z" fill="black"/>
<path fill-rule="evenodd" clip-rule="evenodd" d="M406.86 43.7999H393.76C392.26 43.7999 390.16 43.6 389.46 46.2L374.36 110.5C373.76 113.3 371.56 114.3 369.46 114.3C367.36 114.3 365.16 112.6 366.06 109.2L372.46 81.6C373.06 79.4 373.96 77.1 377.56 77.1C378.66 77.1 379.26 77.1 379.76 75C380.16 73.3 381.46 70.5 379.16 70.5H366.76C360.76 70.5 356.26 73.6999 355.26 78.7999L349.06 105.8C347.56 111.6 348.46 120.6 355.96 120.6H388.26C390.16 120.6 392.06 120.2 392.76 117.8L409.26 47.3999C409.26 45.8999 410.06 43.7999 406.86 43.7999Z" fill="black"/>
<path fill-rule="evenodd" clip-rule="evenodd" d="M336.559 70.5H307.259C304.959 70.5 303.659 70.5 302.959 72.2L302.559 74.5C302.359 75.2 302.159 76.6 303.859 76.6H325.359C328.959 76.6 328.159 78.9 326.859 84.7L320.859 110.2C320.259 113 318.259 114.3 316.159 114.3C314.059 114.3 311.859 112.6 312.759 109.2L316.359 93.8C316.759 92.1 317.259 90.8 320.259 90.8C320.859 90.8 322.859 90.8 323.259 89.1C323.659 88 324.759 85.5 322.859 85.5H306.859C299.559 85.5 298.759 90.8 298.059 93.9L295.259 105.7C293.759 112.1 295.259 120.7 302.559 120.7H313.859H334.359C336.259 120.7 338.359 120.5 339.059 117.9L347.159 83C349.559 73.5 342.759 70.5 336.559 70.5Z" fill="black"/>
<path fill-rule="evenodd" clip-rule="evenodd" d="M161.56 70.5H150.16H130.96C129.06 70.5 125.36 71.8 124.16 76.7L116.86 108.1C114.46 117.5 121.56 120.5 127.56 120.5H157.46C160.06 120.5 160.66 120.3 161.06 118.8L161.66 116.5C161.86 115.9 162.16 114.2 160.36 114.4H138.56C134.96 114.4 135.56 112.5 137.06 106.1L143.06 80.9C143.66 78.1 145.66 76.8 147.76 76.8C150.56 76.8 152.06 78.5 151.16 81.9L149.06 91.9C148.46 93.8 147.96 95.1 144.96 95.1C144.06 95.1 142.36 95.1 141.96 96.8L141.56 98.5C141.16 99.8 141.76 100.4 142.86 100.4H158.46C165.96 100.4 166.56 94.6 167.06 92.1L169.46 82.1C171.36 74.6 166.86 70.5 161.56 70.5Z" fill="black"/>
<path fill-rule="evenodd" clip-rule="evenodd" d="M105.46 70.5H92.1595C89.5595 70.5 89.1595 70.1 89.5595 67.9L94.4595 47.2C94.8595 45.7 94.8595 43.8 92.3595 43.8H79.3595C77.8595 43.8 75.7595 43.4 74.8595 46.2L58.1595 117C57.9595 118.7 57.2595 120.6 60.6595 120.6H73.3595C75.7595 120.6 77.4595 120.2 78.0595 117.8L86.6595 81C87.5595 78.2 88.1595 76.9 93.0595 76.9C95.4595 76.9 97.7595 78.8 96.6595 82.2L88.5595 117.7C87.9595 120.5 90.4595 120.5 91.5595 120.5H103.56C105.26 120.5 107.36 120.1 108.06 117.7L116.16 83C118.26 73.7 111.66 70.5 105.46 70.5Z" fill="black"/>
<path fill-rule="evenodd" clip-rule="evenodd" d="M446.259 70.5H415.059C413.159 70.5 409.259 71.5 408.259 76.5L400.759 108.1C398.659 117.5 405.059 120.5 411.459 120.5H442.659C444.559 120.5 448.459 119.2 449.459 114.3L456.959 82.9C459.259 73.5 452.259 70.5 446.259 70.5ZM437.259 82.1L430.859 109.7C430.059 112.9 428.259 114.4 424.859 114.4C422.759 114.4 420.359 112.7 421.259 109.3L427.659 81.5C428.259 78.7 430.059 77.2 433.459 77.2C435.759 77.1 438.159 78.9 437.259 82.1Z" fill="black"/>
<path fill-rule="evenodd" clip-rule="evenodd" d="M211.16 76.7C212.06 76.7 213.26 76.9 213.76 75.2L214.16 72.6C214.36 72 215.06 70.5 213.56 70.5H181.06C179.56 70.5 178.66 71.5 178.26 72.6L167.76 117.5C167.16 120.3 169.46 120.5 170.96 120.5H183.36C186.36 120.5 186.76 119.2 187.26 117.7L194.36 87.5C197.26 75 204.96 76.9 211.16 76.7Z" fill="black"/>
<path fill-rule="evenodd" clip-rule="evenodd" d="M500.56 70.5H468.36C466.86 70.5 465.76 71.5 465.56 72.6L455.06 117.5C454.46 120.3 456.76 120.5 458.26 120.5H470.66C473.66 120.5 474.06 119.2 474.46 117.7L481.56 87.5C484.56 74.9 492.06 76.8 498.46 76.6C499.16 76.6 500.36 76.8 500.86 75.1L501.56 72.5C501.66 72 502.06 70.5 500.56 70.5Z" fill="black"/>
<path d="M587.859 25.6001C587.859 22.3001 590.559 19.6001 593.859 19.6001C597.159 19.6001 599.859 22.3001 599.859 25.6001C599.859 28.9001 597.159 31.6001 593.859 31.6001C590.559 31.6001 587.859 28.9001 587.859 25.6001ZM599.159 25.6001C599.159 22.7001 596.759 20.3001 593.859 20.3001C590.959 20.3001 588.559 22.7001 588.559 25.6001C588.559 28.6001 590.959 30.9001 593.859 30.9001C596.859 30.9001 599.159 28.5001 599.159 25.6001ZM596.959 28.9001H595.959L594.059 25.8001H592.559V28.9001H591.759V22.2001H594.759C595.359 22.2001 595.859 22.2001 596.359 22.5001C596.859 22.8001 597.159 23.4001 597.159 24.0001C597.159 25.3001 596.259 25.8001 595.059 25.9001L596.959 28.9001ZM593.759 25.2001C594.659 25.2001 596.159 25.4001 596.159 24.0001C596.159 23.0001 595.259 22.8001 594.359 22.8001H592.459V25.2001H593.759Z" fill="black"/>
</g>
<defs>
<clipPath id="clip0_297_565">
<rect width="599.859" height="120.7" fill="white"/>
</clipPath>
</defs>
</svg>
