<svg width="2356" height="628" viewBox="0 0 2356 628" fill="none" xmlns="http://www.w3.org/2000/svg">
<g clip-path="url(#clip0_297_585)">
<path fill-rule="evenodd" clip-rule="evenodd" d="M240.018 177.758L239.954 158.731H236.958L0 158.744V627.342H2355.61V158.744L361.532 158.718H350.08V181.052H2330.76V605.462H26.0822V181.052H239.85L240.018 177.758Z" fill="#83733E"/>
<path fill-rule="evenodd" clip-rule="evenodd" d="M239.967 299.077V90.1469H81.5149C81.5149 90.1469 67.4427 92.8056 56.8724 75.1538L23.4234 14.2607C23.4234 14.2607 9.35115 -1.62718 35.7446 0.136708H554.328C580.734 -1.62718 566.649 14.2607 566.649 14.2607L533.187 75.1538C522.63 92.8056 508.531 90.1469 508.531 90.1469H350.093V536.631C348.757 552.973 321.041 548.537 321.041 548.537H269.019C269.019 548.537 241.276 552.973 239.967 536.631V299.077Z" fill="#83733E"/>
<path fill-rule="evenodd" clip-rule="evenodd" d="M1125.74 486.321L1118.47 486.347H1066.76L1063.57 486.295L1059.72 486.568L1055.43 486.464C1038.62 485.102 1022.29 471.873 1022.29 471.873L1019.13 467.8C1019.13 467.8 998.711 486.905 982.369 486.464L977.596 486.568L972.849 486.295L969.672 486.347H907.054L902.748 486.217C886.406 486.671 869.623 471.678 869.623 471.678L866.471 467.58C866.471 467.58 846.044 486.684 829.702 486.23L824.955 486.36H755.982C755.982 486.36 735.568 488.189 720.588 471.367L709.252 460.447C709.252 460.447 677.048 487.268 659.331 486.36H578.115C578.115 486.36 552.72 483.649 551.799 459.072L555.444 357.648C555.444 357.648 557.246 333.07 521.398 333.07C521.398 333.07 497.832 332.642 495.108 335.807C495.108 335.807 488.377 425.506 453.372 478.371L445.227 485.465L441.569 486.477L429.014 486.347C429.014 486.347 393.788 490.601 411.181 457.697C411.181 457.697 461.996 343.07 442.931 275.796C442.931 275.796 436.576 261.685 467.431 263.06C467.431 263.06 488.286 258.494 489.661 279.415C491.088 301.23 497.495 299.946 516.884 297.624C537.001 295.186 602.472 293.98 602.472 293.98C602.472 293.98 643.923 290.789 645.739 342.642V450.434C645.739 450.434 704.713 462.69 708.344 379.022V341.125L708.578 335.522C708.578 335.522 705.4 294.006 757.123 292.177L781.403 292.151H839.014C839.014 292.151 860.324 298.065 863.514 310.347L863.748 310.659C863.748 310.659 863.281 291.567 879.623 292.034L881.659 292.151H938.363L943.81 292.242C943.81 292.242 956.508 291.801 956.974 304.991L957.415 312.5V445.869C957.415 445.869 955.626 459.98 987.376 445.869L988.737 445.441C988.737 445.441 1013.24 434.948 1019.15 408.58V311.126L1019.36 305.211C1019.36 305.211 1018.91 292.475 1032.06 292.021L1038.19 292.255H1091.29L1099.43 292.229C1099.43 292.229 1112.13 291.788 1112.6 304.978V415.831C1112.6 415.831 1113.07 449.046 1143.45 444.053C1143.45 444.053 1168.85 445.415 1171.13 413.094V313.836L1171.25 305.315C1171.25 305.315 1170.81 292.566 1183.97 292.138L1190.64 292.255H1245.53L1254.06 292.345C1254.06 292.345 1266.76 291.892 1267.21 305.082L1267.47 308.817L1267.32 310.581V451.484C1267.32 451.484 1265.51 465.596 1297.26 451.484L1298.62 451.031C1298.62 451.031 1322.67 438.748 1330.39 412.381V131.935L1330.31 118.849C1330.31 118.849 1330.13 106.126 1343.3 105.672L1357.6 105.685H1403.87L1408.89 105.788C1408.89 105.788 1421.59 105.321 1422.02 118.512V438.372C1422.47 451.575 1435.2 451.082 1435.2 451.082L1522.31 450.758L1528.21 449.967C1528.21 449.967 1568.14 429.501 1515.52 398.568C1515.52 398.568 1465.58 381.746 1468.76 344.004C1468.76 344.004 1470.12 302.592 1509.14 292.138H1636.2L1645.85 292.229C1645.85 292.229 1659.46 293.59 1658.55 307.702L1658.44 317.468C1658.44 317.468 1658.87 330.204 1645.73 330.671L1637.58 330.801H1595.37C1595.37 330.801 1574.93 339.919 1594.44 352.175C1594.44 352.175 1643.91 369.905 1647.99 388.101C1647.99 388.101 1660.25 410.85 1654.35 439.5L1655.25 439.02L1703.71 417.205C1703.71 417.205 1707.86 414.469 1707.86 396.739C1707.86 379.009 1730.56 288.493 1826.74 287.573C1826.74 287.573 1945.62 287.573 1942 413.094C1942 413.094 1940.64 424.468 1927.92 422.64H1810.86C1810.86 422.64 1803.61 445.843 1819.5 450.862H1974.66C1974.66 450.862 1980.56 451.744 1980.56 441.316V310.192L1980.67 305.199C1980.67 305.199 1980.21 292.462 1993.36 292.008L2000.08 292.125H2059.99L2062.7 292.216C2062.7 292.216 2075.4 291.775 2075.85 304.965V324.42C2075.85 324.42 2079.04 327.584 2085.37 324.42C2085.37 324.42 2142.09 283.461 2148.9 284.382C2148.9 284.382 2197.45 279.843 2206.96 320.321V440.823C2207.42 454.026 2220.14 453.56 2220.14 453.56L2226.95 453.456H2268.7C2268.7 453.456 2280.02 452.548 2278.19 468.449C2278.19 468.449 2282.26 488.033 2266.41 486.204H2162.96C2126.2 489.979 2126.65 459.811 2126.65 459.811V363.07C2126.65 363.07 2128.48 349.866 2118.49 358.05C2118.49 358.05 2074.01 382.628 2074.01 385.339V475.388C2074.01 475.388 2075.84 487.216 2060.4 486.308H1765.07C1765.07 486.308 1734.67 488.591 1715.14 447.658L1646.62 481.782C1646.62 481.782 1643 485.18 1632.1 486.321H1361.23V486.192C1344.46 485.284 1331.77 463.066 1331.77 463.066C1331.77 463.066 1313.18 486.321 1289.09 486.321H1227.41L1220.62 486.295L1211.88 486.555L1207.55 486.451C1189.87 485.517 1174.44 471.86 1174.44 471.86L1171.26 467.787C1171.26 467.787 1151.77 485.517 1134.5 486.451L1129.76 486.555L1125.74 486.321ZM1801.92 379.554H1842.45C1842.45 379.554 1848.8 330.892 1820.99 333.33C1820.99 333.317 1796.01 327.883 1801.92 379.554ZM816.758 449.137C829.845 449.435 856.913 447.166 863.8 427.905C863.8 427.905 876.497 345.573 849.74 338.155C849.74 338.155 808.445 325.872 801.337 359.36V429.125C801.337 429.125 801.337 433.91 802.401 438.8C808.419 449.695 816.758 449.137 816.758 449.137Z" fill="#83733E"/>
</g>
<defs>
<clipPath id="clip0_297_585">
<rect width="2355.61" height="627.342" fill="white"/>
</clipPath>
</defs>
</svg>
