<svg width="317" height="66" viewBox="0 0 317 66" fill="none" xmlns="http://www.w3.org/2000/svg">
<g clip-path="url(#clip0_297_586)">
<path d="M272.34 22.97H247.03C241.26 22.97 239.53 27.73 239.53 27.73L229.15 47.6C227.84 50.53 224.67 52.97 221.65 53.52H203.62C201.49 53.05 200.47 51.23 201.03 48.9L214.43 22.98H204.96L191.87 48.31C190.43 50.92 187.55 53.02 184.79 53.53H172.9C170.38 52.98 169.38 50.54 170.68 47.61L182.94 22.98H173.47L160.4 47.61C159.09 50.54 155.92 52.98 152.9 53.53L132.3 53.65C128.96 53.65 127.5 50.95 129.02 47.61L136.23 33.4H145.23L150.62 22.98H111.79C105.46 22.98 104.94 25.92 104.94 25.92L92.52 49.95C90.63 52.12 87.81 53.64 85.3 53.64H68.37C65.03 53.64 63.57 50.94 65.09 47.6L79.59 19.06H117.96L123.34 8.64H84.98L89.45 0H74.17L69.7 8.64H5.39L0 19.06H64.3L45.66 55.13L44.2 58.7C42.75 62.7 46.15 64 46.15 64H88.27C88.27 64 94.36 63.4 97.74 58.14L110.53 33.39H126.75L114.43 57.22C114.43 57.22 111.24 63.99 117.99 63.99L152.2 63.94C152.2 63.94 156.24 63.76 158.55 60.86C158.55 60.86 159.34 63.94 162.06 63.94H183.4C183.4 63.94 187.44 63.76 189.75 60.86C189.75 60.86 190.55 63.94 193.26 63.94H294.54L299.93 53.52H240.93C238.56 53 237.54 50.81 238.51 48.11L240.47 44.31H262.76C268.8 44.31 270.6 40.51 270.6 40.51C271.82 38.16 274.34 33.39 274.34 33.39L276.84 28.55C276.84 28.55 279.1 22.97 272.35 22.97H272.34ZM246.11 33.39H264.78V33.48C266.13 33.48 265.59 34.28 265.59 34.28L264.61 36.5C264.24 37.46 263.63 37.62 263.63 37.62H243.91L246.1 33.39H246.11Z" fill="#003E57"/>
<path d="M303.15 58.5598C303.15 54.8298 306.2 51.7798 309.97 51.7798C313.74 51.7798 316.75 54.8298 316.75 58.5598C316.75 62.2898 313.72 65.3798 309.97 65.3798C306.22 65.3798 303.15 62.3298 303.15 58.5598ZM315.68 58.5598C315.68 55.2598 313.28 52.6698 309.97 52.6698C306.66 52.6698 304.22 55.2498 304.22 58.5598C304.22 61.8698 306.64 64.4798 309.97 64.4798C313.3 64.4798 315.68 61.8998 315.68 58.5598ZM313.36 62.3598H312.25L310.08 58.8598H308.37V62.3598H307.44V54.7698H310.76C312.77 54.7698 313.45 55.5198 313.45 56.7798C313.45 58.2698 312.41 58.8298 311.06 58.8598L313.36 62.3598ZM309.79 58.1298C310.87 58.1298 312.44 58.3098 312.44 56.7698C312.44 55.5798 311.47 55.4398 310.54 55.4398H308.37V58.1298H309.79Z" fill="#003E57"/>
</g>
<defs>
<clipPath id="clip0_297_586">
<rect width="316.75" height="65.38" fill="white"/>
</clipPath>
</defs>
</svg>
