<svg width="386" height="93" viewBox="0 0 386 93" fill="none" xmlns="http://www.w3.org/2000/svg">
<g clip-path="url(#clip0_299_597)">
<path fill-rule="evenodd" clip-rule="evenodd" d="M101.49 67.4402V28.2902C101.49 27.5902 101.77 26.7102 102.02 26.1402L104.24 22.9902C105.07 22.0802 111.53 17.1102 112.23 17.1102C114.43 17.1102 117.45 19.1402 118.86 21.0002C120.12 22.6702 121.63 26.1502 121.63 28.9702V67.2202C121.63 76.2002 111.83 80.6802 106.13 75.5602C103.69 73.3602 101.49 71.2302 101.49 67.4502V67.4402ZM216.97 66.9902V29.8602C216.97 25.3002 220.38 21.9202 223.64 19.7502C226.57 17.7902 227.28 16.8602 230.81 19.1602C233.57 20.9502 235.55 25.5802 235.55 28.9702V68.3402C235.55 73.1702 231.62 75.1702 228.57 77.2402C226.52 78.6302 227.63 78.3202 225.36 77.4102C221.06 75.6902 216.98 72.0802 216.98 67.0002L216.97 66.9902ZM185.41 16.8802C189.26 16.8802 192.64 17.3302 195.33 20.6102C196.98 22.6102 198.39 25.8702 198.39 29.4102V67.6602C198.39 72.4002 194.66 75.8102 191.37 76.9802C184.93 79.2602 184.53 77.5602 182.72 73.4802L162.58 32.9902C164.35 30.3402 167.09 27.4702 169.61 25.4802C172.64 23.0802 174.73 21.5402 178.39 19.7202C179.69 19.0702 183.95 16.8902 185.4 16.8902L185.41 16.8802ZM0.110321 0.330168C-0.789679 4.21017 3.97032 0.440168 8.80032 7.53017C11.6003 11.6402 22.9503 41.2502 25.9203 47.9102C26.3803 48.9302 26.6803 49.7102 27.1203 50.7302L33.2203 65.4402C34.0503 67.3102 34.7403 69.2002 35.5603 71.1502C36.3603 73.0502 41.9403 87.3902 43.0703 88.4702C44.6803 88.0902 44.9603 85.9602 45.5303 84.6602L47.4903 80.1302C50.1403 73.4002 53.2503 66.7602 56.1203 60.1202C57.8003 56.2602 59.1003 52.5402 60.9003 48.7902C62.9403 44.5502 64.8803 39.6902 66.7003 35.3502L70.5303 26.4202C71.2703 24.8702 71.8403 23.5302 72.4903 21.8902C73.0803 20.4102 74.0503 18.8402 74.4103 17.3202C79.2203 18.4402 82.6903 23.9502 82.6903 28.9502V68.3202C82.6903 71.8602 80.2603 74.0602 78.1203 75.6102C73.6103 78.8602 71.2303 76.8502 71.1703 79.2202C71.1703 79.6202 70.9603 79.9602 71.7203 79.9602H149.38C152.78 79.9602 150.09 78.0602 148.78 77.4202C147.13 76.6102 145.77 75.9302 144.51 74.7602C138.77 69.4202 140.48 66.2302 140.43 59.1502C140.4 54.6502 141.53 55.4102 143.75 52.6302C144.24 52.0202 144.83 51.5102 145.41 50.9302C146.52 49.8202 147.41 48.3802 148.71 47.5202C149.29 48.6202 159.23 68.1902 159.23 69.8902C159.23 71.8902 158.25 73.8302 157.44 75.0402C156.52 76.4402 154.93 77.3202 154.53 79.0602L154.82 79.4402C155.14 79.7602 155.08 79.9602 155.64 79.9602H254.33C255.78 79.9602 255.78 79.1502 255.16 78.2602C253.8 76.3202 250.09 77.4802 246.27 69.2302C245.53 67.6302 245.83 64.5802 245.83 62.2902V33.2102C245.83 33.2102 245.91 33.2602 245.93 33.3402L249.04 38.9602C251 42.9202 253.41 46.5602 255.38 50.5202L261.76 62.2602C262.08 62.7902 262.23 63.1502 262.54 63.7202C263.77 65.9302 271.02 78.7702 271.34 79.9802H289.92V28.9602C289.92 25.7202 292.75 22.7902 294.62 21.3502C295.82 20.4202 296.92 19.6002 298.25 18.7102C298.96 18.2402 299.35 17.9102 300.09 17.4202C300.87 16.9002 301.24 16.6502 301.34 15.5302C300.9 15.3002 300.68 15.0802 300 15.0802H271.35C270.17 15.0802 269.79 17.1702 272.14 17.8702C273.08 18.1502 273.55 18.3802 274.33 18.8102C275.77 19.6002 276.57 20.5902 277.48 21.9202C279.59 25.0002 279.62 27.5702 279.62 32.5302V57.8102C278.57 56.6102 262.57 23.9502 260.75 20.3002C260.32 19.4502 258.51 15.0802 257.69 15.0802H156.53C155.93 15.0802 155.91 15.1902 155.41 15.3002C155.41 18.4002 157.83 17.4002 160.01 18.0902C163.32 19.1302 163.34 22.3602 161.06 24.5302C160.99 24.6002 160.6 24.9502 160.6 24.9602L160.4 25.2102C158.31 28.0202 152.82 32.8902 149.94 36.0102C149.29 36.7102 148.65 37.0602 148 37.8702C147.31 38.7302 141.52 44.9902 140.42 45.2902V35.2202C140.42 32.0802 139.91 27.7602 141.18 25.6902C144.12 20.8802 150.44 18.4002 151.84 15.7602L151.12 15.1402L75.5203 15.0902C75.7003 12.9602 78.4603 8.93017 79.8703 7.13017C80.8003 5.94017 81.7403 5.08017 83.0003 4.22017C84.2003 3.40017 85.8203 2.71017 86.4903 1.45017C86.0903 0.700168 85.6403 0.110168 84.4803 0.110168H48.9003C48.0903 0.110168 47.6503 0.300168 47.1103 0.560168C47.3703 3.74017 55.1703 4.32017 55.1703 11.7502C55.1703 14.9502 51.2303 22.2402 49.9303 25.5202C48.7803 28.4102 40.9703 46.8502 40.1803 47.7602C39.7403 45.8802 31.3603 22.6202 30.7103 20.9802C30.0403 19.3002 27.6403 12.6802 27.6403 11.7402C27.6403 10.3002 27.8503 8.75017 28.4903 7.66017L30.3003 5.22017C31.9303 3.74017 35.0303 2.55017 35.0303 1.23017C35.0303 0.710168 34.4303 0.110168 33.9103 0.110168C29.9003 0.100168 1.58032 -0.239832 0.110321 0.330168Z" fill="black"/>
<path fill-rule="evenodd" clip-rule="evenodd" d="M332.001 13.5299C323.611 13.5299 317.881 14.6599 310.791 18.4999C307.911 20.0599 305.371 21.9199 303.081 24.2099C301.471 25.8199 300.231 27.0799 298.931 29.0099C291.831 39.4699 290.721 54.8699 295.371 66.4899C298.431 74.1299 304.001 80.6399 311.041 84.8299C318.901 89.4999 322.171 90.5099 329.901 88.8299C330.781 88.6399 331.251 88.4399 332.021 88.2699C339.341 86.6599 345.791 84.0699 352.811 88.2699C353.431 88.6399 353.651 88.8099 354.221 89.3199C360.651 95.1099 359.531 93.3799 359.531 81.9999V64.9999C359.531 61.3899 359.661 60.7999 362.081 59.0499C364.531 57.2799 366.461 57.0499 366.461 54.7099C364.031 54.1399 337.831 54.4899 333.111 54.4899C330.581 54.4899 335.051 57.2699 335.311 57.4399C339.781 60.3299 341.371 65.4699 340.661 71.2099C340.231 74.6799 338.771 77.7999 336.411 80.1599C335.281 81.2999 334.161 82.0999 332.571 82.8099C327.191 85.2099 324.161 84.7499 319.621 80.0499C318.161 78.5399 316.041 74.5999 315.281 72.3099C310.851 58.8999 309.971 33.4399 322.101 23.7999C326.931 19.9699 331.901 19.1599 337.661 20.8499C345.601 23.1799 351.151 30.2299 354.811 37.2599C355.461 38.5099 356.031 40.6199 357.271 40.6199C358.811 40.6199 358.451 38.4699 358.331 37.5599C358.161 36.3099 358.051 34.8099 357.851 33.3399L355.011 10.0099C354.911 9.08994 354.791 8.81994 354.371 8.18994C351.701 8.89994 352.711 16.5499 345.791 17.0399C343.381 17.2099 341.391 15.5999 339.281 14.9899C337.221 14.3899 334.441 13.5599 331.991 13.5599L332.001 13.5299Z" fill="black"/>
<path fill-rule="evenodd" clip-rule="evenodd" d="M372.23 84.8C372.23 81.7 374.52 78.62 378.15 78.36C381.4 78.13 384.43 80.95 384.43 85.15C384.43 91.56 375.36 93.63 372.83 87.38C372.61 86.84 372.23 85.43 372.23 84.8ZM370.64 84.62C370.64 90.44 376.13 94.07 381.46 91.9C382.21 91.6 383.24 90.86 383.78 90.33C388.04 86.07 386.24 77.02 377.89 77.02C374.21 77.02 370.64 80.57 370.64 84.62Z" fill="black"/>
<path fill-rule="evenodd" clip-rule="evenodd" d="M377.009 84.4399V81.6099H378.249C379.109 81.6099 379.839 82.1099 379.839 83.0199C379.839 84.3599 378.349 84.4299 377.009 84.4299V84.4399ZM375.409 81.0799V88.8599C375.409 89.4899 375.749 89.3899 376.469 89.3899C378.299 89.3899 375.359 84.9799 378.259 85.6399C380.329 86.1099 379.139 87.5799 380.359 89.3899H381.769L381.219 86.9299C380.959 85.4199 380.409 85.6599 380.179 84.7899C382.029 84.2999 382.699 79.5099 376.399 80.4799C375.829 80.5699 375.409 80.4599 375.409 81.0799Z" fill="black"/>
</g>
<defs>
<clipPath id="clip0_299_597">
<rect width="386" height="92.54" fill="white"/>
</clipPath>
</defs>
</svg>
