<svg width="120" height="25" viewBox="0 0 120 25" fill="none" xmlns="http://www.w3.org/2000/svg">
<g clip-path="url(#clip0_299_605)">
<path fill-rule="evenodd" clip-rule="evenodd" d="M13.8483 9.59296C15.3563 7.37296 15.4983 7.17996 17.2433 4.45896C19.3353 1.19296 15.4003 -0.386038 13.8483 1.24996C12.3143 -0.412038 8.33025 1.18596 10.4533 4.45996C12.3793 7.37996 12.5073 7.57096 13.8483 9.59296Z" fill="#D6322F"/>
<path fill-rule="evenodd" clip-rule="evenodd" d="M7.7 1.0582L13.842 15.4842L19.964 1.0582H34.08V16.0102C34.08 16.7802 34.562 17.5502 35.043 17.5502H38.81V1.0582H45.56V24.3142H30.802C28.774 24.3142 26.842 22.7672 26.842 19.4882V2.2132L17.852 24.3132H9.844L0 1.0592L7.7 1.0582ZM101.256 1.0582V24.3142H108.199V8.1742C108.199 8.0532 108.295 8.0082 108.443 8.0082H110.612C111.119 8.02659 111.603 8.2265 111.975 8.57155C112.347 8.9166 112.583 9.38383 112.64 9.8882V24.3142H119.59V5.2542C119.601 4.69576 119.498 4.141 119.287 3.62364C119.077 3.10627 118.763 2.63711 118.366 2.24465C117.968 1.85219 117.495 1.54463 116.975 1.34067C116.455 1.13671 115.899 1.04061 115.341 1.0582H101.256Z" fill="black"/>
<path d="M94.1897 1.05811C92.3547 1.05811 90.6737 2.48311 89.9037 3.62511L80.6047 17.9931H72.1347C71.2677 17.9931 70.7097 17.6461 70.7097 16.6331V9.31011C70.7097 8.29611 71.2677 7.95611 72.1347 7.95611H80.7977V1.05811H68.2647C65.1267 1.05811 63.6707 3.20811 63.6707 5.66511V17.6531H53.7947V1.05811H46.8447V24.3141H63.6697V20.3091C63.8937 22.5101 65.3377 24.3141 68.2127 24.3141H84.7047L86.5847 21.4261H93.1687V24.3201H99.5347V1.05811H94.1897ZM90.8797 14.3281L93.1897 10.2281V14.3281H90.8797Z" fill="black"/>
</g>
<defs>
<clipPath id="clip0_299_605">
<rect width="120" height="25" fill="white"/>
</clipPath>
</defs>
</svg>
