<svg width="487" height="146" viewBox="0 0 487 146" fill="none" xmlns="http://www.w3.org/2000/svg">
<g clip-path="url(#clip0_299_612)">
<path fill-rule="evenodd" clip-rule="evenodd" d="M476.132 21.947C476.132 23.231 475.126 23.3379 473.985 23.3379H472.289V20.7487H474.121C475.036 20.7487 476.132 20.8773 476.132 21.947ZM470.768 28.366H472.289V24.5793H473.719L476.109 28.366H477.831L475.236 24.4718C476.625 24.3226 477.653 23.6593 477.653 22.0538C477.653 20.2565 476.511 19.5072 474.277 19.5072H470.768V28.366ZM467.506 23.7875C467.506 19.8929 470.324 17.1745 473.943 17.1745C477.516 17.1745 480.334 19.8929 480.334 23.7875C480.334 27.7035 477.516 30.3998 473.943 30.3998C469.964 30.3998 467.506 27.4249 467.506 23.7875ZM465.72 23.7875C465.72 28.3457 469.137 31.7902 473.943 31.7902C478.324 31.7902 482.121 28.601 482.121 23.7875C482.121 18.9725 478.324 15.7837 473.943 15.7837C469.517 15.7837 465.72 18.9725 465.72 23.7875ZM88.111 98.8206L111.509 16.937H98.0354L81.3739 76.4151L64.4683 16.937H51.1158L34.3331 76.4151L17.6734 16.937H4.19824L27.5956 98.8206H41.1936L57.9763 39.3429L74.5152 98.8206H88.111ZM117.747 17.1723L131.223 16.1165V36.1755L130.977 43.6835H131.468C137.714 41.4543 142.738 40.3988 148.863 40.3988C159.767 40.3988 167.116 45.0921 167.116 63.039V98.8206H153.64V64.0951C153.64 53.303 148.128 51.8958 141.882 51.8958C137.96 51.8958 134.652 52.7177 131.223 53.656V98.8206H117.747V17.1723ZM192.346 98.8206H178.871V41.2204H192.346V98.8206ZM185.608 17.9926C192.592 17.9926 193.694 21.8642 193.694 26.2048C193.694 30.5454 192.223 34.5348 185.608 34.5348C178.994 34.5348 177.645 30.5454 177.645 26.2048C177.645 21.8642 178.871 17.9926 185.608 17.9926ZM212.924 41.2204H203.736V98.8206H217.212V54.8285C220.764 53.303 223.703 52.4824 227.379 52.4824C229.953 52.4824 232.526 52.8355 234.973 53.1852V40.5165C233.994 40.3988 233.014 40.3988 232.158 40.3988C224.805 40.3988 219.172 42.9806 215.62 45.9126H214.762L212.924 41.2204ZM240.728 98.8206V17.1723L254.204 16.1165V98.8206H240.728ZM350.115 50.4886C360.894 50.4886 362.733 59.4045 362.733 70.3117C362.733 81.2227 360.282 89.7868 349.503 89.7868C338.721 89.7868 336.516 80.7525 336.516 70.3117C336.516 59.0514 339.213 50.4886 350.115 50.4886ZM376.454 70.3117C376.454 51.1915 369.102 40.3988 349.992 40.3988C330.882 40.3988 322.919 51.1915 322.919 70.3117C322.919 88.2599 329.902 99.9941 349.746 99.9941C369.593 99.9941 376.454 88.2599 376.454 70.3117ZM410.538 50.4886C421.315 50.4886 423.154 59.4045 423.154 70.3117C423.154 81.2227 420.704 89.7868 409.924 89.7868C399.144 89.7868 396.937 80.7525 396.937 70.3117C396.937 59.0514 399.634 50.4886 410.538 50.4886ZM436.877 70.3117C436.877 51.1915 429.523 40.3988 410.414 40.3988C391.304 40.3988 383.34 51.1915 383.34 70.3117C383.34 88.2599 390.326 99.9941 410.167 99.9941C430.016 99.9941 436.877 88.2599 436.877 70.3117ZM445.601 17.1723V98.8206H459.074V16.1165L445.601 17.1723ZM278.703 88.1456C282.499 88.2599 284.584 88.3779 288.503 88.3779C296.831 88.3779 302.347 84.1549 302.347 67.3777C302.347 55.8819 297.445 52.8355 288.625 52.8355C285.196 52.8355 282.011 53.4177 278.703 54.4766V88.1456ZM265.228 41.2193H275.396L276.499 45.4423C280.544 43.3304 288.012 40.3988 294.752 40.3988C306.999 40.3988 315.942 48.9623 315.942 69.4886C315.942 89.6688 306.508 99.6412 290.831 99.6412C285.06 99.6412 278.703 98.4678 278.703 98.4678V124.862L265.228 126.27V41.2193Z" fill="black"/>
<path fill-rule="evenodd" clip-rule="evenodd" d="M476.132 21.947C476.132 23.231 475.126 23.3379 473.985 23.3379H472.289V20.7487H474.121C475.036 20.7487 476.132 20.8773 476.132 21.947ZM470.768 28.366H472.289V24.5793H473.719L476.109 28.366H477.831L475.236 24.4718C476.625 24.3226 477.653 23.6593 477.653 22.0538C477.653 20.2565 476.511 19.5072 474.277 19.5072H470.768V28.366ZM467.506 23.7875C467.506 19.8929 470.324 17.1745 473.943 17.1745C477.516 17.1745 480.334 19.8929 480.334 23.7875C480.334 27.7035 477.516 30.3998 473.943 30.3998C469.964 30.3998 467.506 27.4249 467.506 23.7875ZM465.72 23.7875C465.72 28.3457 469.137 31.7902 473.943 31.7902C478.324 31.7902 482.121 28.601 482.121 23.7875C482.121 18.9725 478.324 15.7837 473.943 15.7837C469.517 15.7837 465.72 18.9725 465.72 23.7875ZM88.111 98.8206L111.509 16.937H98.0354L81.3739 76.4151L64.4683 16.937H51.1158L34.3331 76.4151L17.6734 16.937H4.19824L27.5956 98.8206H41.1936L57.9763 39.3429L74.5152 98.8206H88.111ZM117.747 17.1723L131.223 16.1165V36.1755L130.977 43.6835H131.468C137.714 41.4543 142.738 40.3988 148.863 40.3988C159.767 40.3988 167.116 45.0921 167.116 63.039V98.8206H153.64V64.0951C153.64 53.303 148.128 51.8958 141.882 51.8958C137.96 51.8958 134.652 52.7177 131.223 53.656V98.8206H117.747V17.1723ZM192.346 98.8206H178.871V41.2204H192.346V98.8206ZM185.608 17.9926C192.592 17.9926 193.694 21.8642 193.694 26.2048C193.694 30.5454 192.223 34.5348 185.608 34.5348C178.994 34.5348 177.645 30.5454 177.645 26.2048C177.645 21.8642 178.871 17.9926 185.608 17.9926ZM212.924 41.2204H203.736V98.8206H217.212V54.8285C220.764 53.303 223.703 52.4824 227.379 52.4824C229.953 52.4824 232.526 52.8355 234.973 53.1852V40.5165C233.994 40.3988 233.014 40.3988 232.158 40.3988C224.805 40.3988 219.172 42.9806 215.62 45.9126H214.762L212.924 41.2204ZM240.728 98.8206V17.1723L254.204 16.1165V98.8206H240.728ZM350.115 50.4886C360.894 50.4886 362.733 59.4045 362.733 70.3117C362.733 81.2227 360.282 89.7868 349.503 89.7868C338.721 89.7868 336.516 80.7525 336.516 70.3117C336.516 59.0514 339.213 50.4886 350.115 50.4886ZM376.454 70.3117C376.454 51.1915 369.102 40.3988 349.992 40.3988C330.882 40.3988 322.919 51.1915 322.919 70.3117C322.919 88.2599 329.902 99.9941 349.746 99.9941C369.593 99.9941 376.454 88.2599 376.454 70.3117ZM410.538 50.4886C421.315 50.4886 423.154 59.4045 423.154 70.3117C423.154 81.2227 420.704 89.7868 409.924 89.7868C399.144 89.7868 396.937 80.7525 396.937 70.3117C396.937 59.0514 399.634 50.4886 410.538 50.4886ZM436.877 70.3117C436.877 51.1915 429.523 40.3988 410.414 40.3988C391.304 40.3988 383.34 51.1915 383.34 70.3117C383.34 88.2599 390.326 99.9941 410.167 99.9941C430.016 99.9941 436.877 88.2599 436.877 70.3117ZM445.601 17.1723V98.8206H459.074V16.1165L445.601 17.1723ZM278.703 88.1456C282.499 88.2599 284.584 88.3779 288.503 88.3779C296.831 88.3779 302.347 84.1549 302.347 67.3777C302.347 55.8819 297.445 52.8355 288.625 52.8355C285.196 52.8355 282.011 53.4177 278.703 54.4766V88.1456ZM265.228 41.2193H275.396L276.499 45.4423C280.544 43.3304 288.012 40.3988 294.752 40.3988C306.999 40.3988 315.942 48.9623 315.942 69.4886C315.942 89.6688 306.508 99.6412 290.831 99.6412C285.06 99.6412 278.703 98.4678 278.703 98.4678V124.862L265.228 126.27V41.2193Z" fill="black"/>
<path fill-rule="evenodd" clip-rule="evenodd" d="M331.674 4.77758C321.59 -6.45819 289.592 3.41796 253.885 27.1831V33.1721C285.332 11.6765 313.053 1.7583 320.992 10.6048C330.905 21.6501 306.246 57.7778 265.908 91.2538C225.566 124.733 184.813 142.884 174.901 131.838C169.753 126.102 173.951 113.6 184.813 98.2229H178.499C165.05 117.51 160.009 133.714 166.914 141.408C179.502 155.437 226.588 136.245 272.074 98.4997C317.555 60.7551 344.26 18.8049 331.674 4.77758Z" fill="#EEB111"/>
</g>
<defs>
<clipPath id="clip0_299_612">
<rect width="487" height="146" fill="white"/>
</clipPath>
</defs>
</svg>
