<svg width="154" height="28" viewBox="0 0 154 28" fill="none" xmlns="http://www.w3.org/2000/svg">
<g clip-path="url(#clip0_300_617)">
<path d="M18.5696 5.96005C18.5696 5.96005 18.5696 9.98005 20.5596 9.57005C20.5596 9.57005 22.5496 9.02005 20.8296 6.94005C20.8296 6.94005 19.5696 3.70005 21.9596 1.62005C21.9596 1.62005 22.9096 0.82005 22.8196 2.50005C22.8196 2.50005 22.2896 5.41005 25.6096 7.22005C25.6096 7.22005 27.3296 8.47005 27.4696 10.2701C27.4696 10.2701 28.1296 15.2601 24.6796 15.5401C24.6796 15.5401 25.6096 13.1801 23.8796 11.2401C23.8796 11.2401 25.2096 15.6801 21.7596 16.0901C21.7596 16.0901 17.5096 17.4801 15.6596 13.1801C15.6596 13.1801 13.6696 8.88005 18.5796 5.97005L18.5696 5.96005Z" fill="#C62032"/>
<path d="M32.87 6.94014V20.2501C32.87 20.2501 27.96 17.5101 20.94 17.3401C13.89 17.6301 9.01 20.2501 9.01 20.2501V6.94014C7.63 0.280137 0 0.140137 0 0.140137V23.5801C0.42 27.0501 4.3 27.1901 4.3 27.1901C7.07 27.1901 8.88 26.2201 8.88 26.2201C15.12 23.3201 18.23 22.8001 20.82 22.6401C23.4 22.7601 26.77 23.3201 33.01 26.2201C33.01 26.2201 34.81 27.1901 37.59 27.1901C37.59 27.1901 41.47 27.0501 41.89 23.5801V0.140137C41.89 0.140137 34.26 0.280137 32.88 6.94014H32.87Z" fill="#4D4D4F"/>
<path d="M97.1897 20.2501V6.94014C95.8097 0.280137 88.1797 0.140137 88.1797 0.140137V23.5801C88.5997 27.0501 92.4797 27.1901 92.4797 27.1901H111.7C111.7 27.1901 114.01 26.7201 114.01 23.9101C114.01 23.9101 114.2 21.5401 111.64 20.7301H97.1897V20.2601V20.2501Z" fill="#4D4D4F"/>
<path d="M124.94 12.2598H139.93C142.5 12.7598 142.61 15.3098 142.61 15.3098C142.55 18.1398 139.99 18.4498 139.99 18.4498H124.89L124.94 12.2698V12.2598Z" fill="#4D4D4F"/>
<path d="M125.99 9.02H140.07C147.05 7.69 146.47 0.75 146.47 0.75H120.11C116.64 1.17 116.5 5.05 116.5 5.05V24.27C116.5 24.27 116.47 27.57 120.95 27.57C120.95 27.57 125.02 27.63 125.52 24.21V9.01H125.99V9.02Z" fill="#4D4D4F"/>
<path d="M72.5 0H57.93C53.39 0 48.25 3.72 48.25 8.26V18.93C48.25 23.47 53.38 27.19 57.93 27.19H72.5C77.04 27.19 81.89 23.47 81.89 18.93V8.26C81.89 3.72 77.04 0 72.5 0ZM73.18 16.99C73.18 19.88 70.81 21.58 67.92 21.58H62.19C59.3 21.58 56.93 19.88 56.93 16.99V10.19C56.93 7.3 59.3 5.54 62.19 5.54H67.92C70.81 5.54 73.18 7.29 73.18 10.19V16.99Z" fill="#4D4D4F"/>
<path d="M149.58 0.999961H148.77V0.709961H150.75V0.999961H149.93V3.37996H149.58V0.999961Z" fill="#4D4D4F"/>
<path d="M153.299 2.20996C153.279 1.83996 153.259 1.38996 153.259 1.05996H153.249C153.159 1.36996 153.049 1.70996 152.909 2.06996L152.439 3.35996H152.179L151.749 2.08996C151.619 1.70996 151.509 1.36996 151.439 1.04996C151.439 1.37996 151.409 1.82996 151.389 2.22996L151.319 3.37996H150.989L151.179 0.709961H151.619L152.079 1.99996C152.189 2.32996 152.279 2.61996 152.349 2.89996H152.359C152.429 2.62996 152.519 2.33996 152.639 1.99996L153.119 0.709961H153.559L153.729 3.37996H153.389L153.319 2.20996H153.299Z" fill="#4D4D4F"/>
</g>
<defs>
<clipPath id="clip0_300_617">
<rect width="153.71" height="27.57" fill="white"/>
</clipPath>
</defs>
</svg>
