<svg width="110" height="110" viewBox="0 0 110 110" fill="none" xmlns="http://www.w3.org/2000/svg">
<path d="M94 42V1H16V109H94V92" stroke="#0F1D45" stroke-width="2" stroke-linecap="round" stroke-linejoin="round"/>
<line x1="23" y1="98" x2="87" y2="98" stroke="#0F1D45" stroke-width="2" stroke-linecap="round"/>
<line x1="23" y1="35" x2="87" y2="35" stroke="#0F1D45" stroke-width="2" stroke-linecap="round"/>
<path d="M25 11C23.8954 11 23 11.9643 23 13.1538L23 22.8462C23 24.0357 23.8954 25 25 25C26.1046 25 27 24.0357 27 22.8462L27 13.1538C27 11.9643 26.1046 11 25 11Z" stroke="#0F1D45" stroke-width="2" stroke-linecap="round" stroke-linejoin="round"/>
<path d="M25 47C23.8954 47 23 47.9643 23 49.1538L23 72.8462C23 74.0357 23.8954 75 25 75C26.1046 75 27 74.0357 27 72.8462L27 49.1538C27 47.9643 26.1046 47 25 47Z" stroke="#0F1D45" stroke-width="2" stroke-linecap="round" stroke-linejoin="round"/>
<path d="M80.4186 42L80.4186 47M80.4186 47L85.4186 44M80.4186 47L75.4186 44M80.4186 47V52M80.4186 52L72.9186 47.5M80.4186 52L87.9186 47.5M80.4186 52V64M80.4186 64C78.7618 64 77.4186 65.3431 77.4186 67C77.4186 68.6569 78.7618 70 80.4186 70M80.4186 64C82.0755 64 83.4186 65.3431 83.4186 67C83.4186 68.6569 82.0755 70 80.4186 70M80.4186 92V87M80.4186 87L75.4186 90M80.4186 87L85.4186 90M80.4186 87V82M80.4186 82L87.9186 86.5M80.4186 82L72.9186 86.5M80.4186 82V70M58.768 54.5001L63.0981 57.0001M63.0981 57.0001L63 51.1699M63.0981 57.0001L58 59.8302M63.0981 57.0001L67.4282 59.5001M67.4282 59.5001L59.7811 63.7453M67.4282 59.5001L67.2811 50.7549M67.4282 59.5001L77.8206 65.5001M102.069 79.5L97.7391 77M97.7391 77L97.8372 82.8302M97.7391 77L102.837 74.1699M97.7391 77L93.409 74.5M93.409 74.5L101.056 70.2549M93.409 74.5L93.5561 83.2452M93.409 74.5L83.0167 68.5M58.7679 79.5L63.0981 77M63.0981 77L58 74.1698M63.0981 77L63 82.8301M63.0981 77L67.4282 74.5M67.4282 74.5L67.2811 83.2451M67.4282 74.5L59.7811 70.2548M67.4282 74.5L77.8205 68.5M102.069 54.5002L97.7392 57.0002M97.7392 57.0002L102.837 59.8303M97.7392 57.0002L97.8373 51.17M97.7392 57.0002L93.4091 59.5002M93.4091 59.5002L93.5562 50.755M93.4091 59.5002L101.056 63.7454M93.4091 59.5002L83.0168 65.5002" stroke="#0F1D45" stroke-width="2" stroke-linecap="round"/>
</svg>
