<svg width="110" height="110" viewBox="0 0 110 110" fill="none" xmlns="http://www.w3.org/2000/svg">
<path d="M34.9231 51L28 38V1H82V38L75.0769 51M33 38H77M71.6532 82.677C71.6621 82.4524 71.6667 82.2268 71.6667 82C71.6667 72.7953 64.2047 65.3333 55 65.3333C45.7953 65.3333 38.3333 72.7953 38.3333 82M71.6532 82.677C71.298 91.5679 63.978 98.6667 55 98.6667C45.7953 98.6667 38.3333 91.2047 38.3333 82M71.6532 82.677C71.4539 82.8286 69.0552 84.5903 64.9418 84.7772M71.6532 82.677C71.6622 82.6702 71.6667 82.6666 71.6667 82.6666M38.3333 82C38.3333 82 44.6667 76.9999 55 82.3333C57.4674 83.6068 59.7068 84.2911 61.6863 84.595M61.6874 84.5968C61.6737 84.511 61.6667 84.423 61.6667 84.3333C61.6667 83.4129 62.4129 82.6667 63.3333 82.6667C64.2538 82.6667 65 83.4129 65 84.3333C65 84.4877 64.979 84.6371 64.9398 84.779M36 6H74C75.6569 6 77 7.34315 77 9V30C77 31.6569 75.6569 33 74 33H36C34.3431 33 33 31.6569 33 30V9C33 7.34315 34.3431 6 36 6ZM38 14.1538C38 12.9643 38.8954 12 40 12C41.1046 12 42 12.9643 42 14.1538L42 23.8462C42 25.0357 41.1046 26 40 26C38.8954 26 38 25.0357 38 23.8462V14.1538ZM28 55H82V109H28V55ZM77 82C77 94.1503 67.1503 104 55 104C42.8497 104 33 94.1503 33 82C33 69.8497 42.8497 60 55 60C67.1503 60 77 69.8497 77 82ZM53.3333 87C53.3333 87.9205 52.5871 88.6667 51.6667 88.6667C50.7462 88.6667 50 87.9205 50 87C50 86.0795 50.7462 85.3333 51.6667 85.3333C52.5871 85.3333 53.3333 86.0795 53.3333 87ZM60.3333 77.6667C60.3333 78.5871 59.5871 79.3333 58.6667 79.3333C57.7462 79.3333 57 78.5871 57 77.6667C57 76.7462 57.7462 76 58.6667 76C59.5871 76 60.3333 76.7462 60.3333 77.6667Z" stroke="#0F1D45" stroke-width="2" stroke-linecap="round" stroke-linejoin="round"/>
</svg>
