<svg width="110" height="110" viewBox="0 0 110 110" fill="none" xmlns="http://www.w3.org/2000/svg">
<path d="M40 109H70M62 105V99M48 99V105M10 35H100C102.209 35 104 36.7909 104 39V91C104 93.2091 102.209 95 100 95H10C7.79086 95 6 93.2091 6 91V39C6 36.7909 7.79086 35 10 35ZM10 39H100V85H10V39ZM57 90C57 91.1046 56.1046 92 55 92C53.8954 92 53 91.1046 53 90C53 88.8954 53.8954 88 55 88C56.1046 88 57 88.8954 57 90Z" stroke="#0F1D45" stroke-width="2" stroke-linecap="round" stroke-linejoin="round"/>
</svg>
