<svg width="110" height="110" viewBox="0 0 110 110" fill="none" xmlns="http://www.w3.org/2000/svg">
<path d="M41 1V30L16 64H94L69 30V1M79 104C79 104 83.5 100.095 79 94.5C74.5 88.905 79 85 79 85M55 104C55 104 59.5 100.095 55 94.5C50.5 88.905 55 85 55 85M31 104C31 104 35.5 100.095 31 94.5C26.5 88.905 31 85 31 85M46 30H64M16 78H94V68H16V78ZM91 73C91 74.1046 90.1046 75 89 75C87.8954 75 87 74.1046 87 73C87 71.8954 87.8954 71 89 71C90.1046 71 91 71.8954 91 73ZM83 73C83 74.1046 82.1046 75 81 75C79.8954 75 79 74.1046 79 73C79 71.8954 79.8954 71 81 71C82.1046 71 83 71.8954 83 73Z" stroke="#0F1D45" stroke-width="2" stroke-linecap="round" stroke-linejoin="round"/>
</svg>
