<svg width="110" height="110" viewBox="0 0 110 110" fill="none" xmlns="http://www.w3.org/2000/svg">
<path d="M30 55C30 68.8071 41.1929 80 55 80C68.8071 80 80 68.8071 80 55C80 41.1929 68.8071 30 55 30C41.1929 30 30 41.1929 30 55ZM30 55C30 55 39.5 47.4999 55 55.4999C58.7011 57.4102 62.0602 58.4367 65.0295 58.8925M65.0311 58.8952C65.0106 58.7665 65 58.6345 65 58.5C65 57.1193 66.1193 56 67.5 56C68.8807 56 70 57.1193 70 58.5C70 58.7315 69.9685 58.9557 69.9096 59.1685M69.9127 59.1658C76.361 58.8728 80 55.9999 80 55.9999M16 1H94V109H16V1ZM88 55C88 73.2254 73.2254 88 55 88C36.7746 88 22 73.2254 22 55C22 36.7746 36.7746 22 55 22C73.2254 22 88 36.7746 88 55ZM52.5 62.5C52.5 63.8807 51.3807 65 50 65C48.6193 65 47.5 63.8807 47.5 62.5C47.5 61.1193 48.6193 60 50 60C51.3807 60 52.5 61.1193 52.5 62.5ZM63 48.5C63 49.8807 61.8807 51 60.5 51C59.1193 51 58 49.8807 58 48.5C58 47.1193 59.1193 46 60.5 46C61.8807 46 63 47.1193 63 48.5ZM30 11C30 13.2091 28.2091 15 26 15C23.7909 15 22 13.2091 22 11C22 8.79086 23.7909 7 26 7C28.2091 7 30 8.79086 30 11ZM40 15C37.7909 15 36 13.2091 36 11C36 8.79086 37.7909 7 40 7H84C86.2091 7 88 8.79086 88 11C88 13.2091 86.2091 15 84 15H40Z" stroke="#0F1D45" stroke-width="2" stroke-linecap="round" stroke-linejoin="round"/>
</svg>
