<svg width="110" height="110" viewBox="0 0 110 110" fill="none" xmlns="http://www.w3.org/2000/svg">
<path d="M43 95L6 95V35H104V95L67 95M43 91H10V39H100V91H67M84 98L85.3983 103.593C85.7039 104.816 84.7792 106 83.519 106C82.8811 106 82.2841 105.686 81.9227 105.16L77 98M25 98L23.6017 103.593C23.2961 104.816 24.2208 106 25.481 106C26.1189 106 26.7159 105.686 27.0773 105.16L32 98M50 74H60C61.1046 74 62 74.8954 62 76V107C62 108.105 61.1046 109 60 109H50C48.8954 109 48 108.105 48 107V76C48 74.8954 48.8954 74 50 74ZM59 90V96C59 96.5523 58.5523 97 58 97C57.4477 97 57 96.5523 57 96V90C57 89.4477 57.4477 89 58 89C58.5523 89 59 89.4477 59 90ZM59 82C59 84.2091 57.2091 86 55 86C52.7909 86 51 84.2091 51 82C51 79.7909 52.7909 78 55 78C57.2091 78 59 79.7909 59 82ZM53 90C53 90.5523 52.5523 91 52 91C51.4477 91 51 90.5523 51 90C51 89.4477 51.4477 89 52 89C52.5523 89 53 89.4477 53 90ZM53 96C53 96.5523 52.5523 97 52 97C51.4477 97 51 96.5523 51 96C51 95.4477 51.4477 95 52 95C52.5523 95 53 95.4477 53 96Z" stroke="#0F1D45" stroke-width="2" stroke-linecap="round" stroke-linejoin="round"/>
</svg>
