<svg width="110" height="110" viewBox="0 0 110 110" fill="none" xmlns="http://www.w3.org/2000/svg">
<path d="M87 76H23M34 88V86M76 88V86M45 85H47M63 85H65M17 94L17 16L93 16V94H17ZM72 85C72 82.7909 73.7909 81 76 81C78.2091 81 80 82.7909 80 85C80 87.2091 78.2091 89 76 89C73.7909 89 72 87.2091 72 85ZM58 85C58 82.7909 59.7909 81 62 81C64.2091 81 66 82.7909 66 85C66 87.2091 64.2091 89 62 89C59.7909 89 58 87.2091 58 85ZM44 85C44 82.7909 45.7909 81 48 81C50.2091 81 52 82.7909 52 85C52 87.2091 50.2091 89 48 89C45.7909 89 44 87.2091 44 85ZM30 59C30 53.4772 34.4772 49 40 49C45.5228 49 50 53.4772 50 59C50 64.5229 45.5229 69 40 69C34.4772 69 30 64.5229 30 59ZM35 59C35 56.2386 37.2386 54 40 54C42.7614 54 45 56.2386 45 59C45 61.7614 42.7614 64 40 64C37.2386 64 35 61.7614 35 59ZM30 34C30 28.4772 34.4772 24 40 24C45.5228 24 50 28.4772 50 34C50 39.5229 45.5229 44 40 44C34.4772 44 30 39.5229 30 34ZM60 59C60 53.4772 64.4772 49 70 49C75.5229 49 80 53.4772 80 59C80 64.5229 75.5229 69 70 69C64.4772 69 60 64.5229 60 59ZM60 34C60 28.4772 64.4772 24 70 24C75.5229 24 80 28.4772 80 34C80 39.5229 75.5229 44 70 44C64.4772 44 60 39.5229 60 34ZM30 85C30 82.7909 31.7909 81 34 81C36.2091 81 38 82.7909 38 85C38 87.2091 36.2091 89 34 89C31.7909 89 30 87.2091 30 85Z" stroke="#0F1D45" stroke-width="2" stroke-linecap="round" stroke-linejoin="round"/>
</svg>
