<svg width="110" height="110" viewBox="0 0 110 110" fill="none" xmlns="http://www.w3.org/2000/svg">
<path d="M49 53L82 53M49 70H82M49 87H82M32 106.5V109H22V106.5M88 106.5V109H78V106.5M49 36L82 36M49 19L82 19M37 97L37 7M30 55C30 57.2091 28.2091 59 26 59C23.7909 59 22 57.2091 22 55C22 52.7909 23.7909 51 26 51C28.2091 51 30 52.7909 30 55ZM30 37C30 39.2091 28.2091 41 26 41C23.7909 41 22 39.2091 22 37C22 34.7909 23.7909 33 26 33C28.2091 33 30 34.7909 30 37ZM30 19C30 21.2091 28.2091 23 26 23C23.7909 23 22 21.2091 22 19C22 16.7909 23.7909 15 26 15C28.2091 15 30 16.7909 30 19ZM16 1H94V103H16V1ZM49 97C45.6863 97 43 94.3137 43 91V13C43 9.68629 45.6863 7 49 7H82C85.3137 7 88 9.68629 88 13V91C88 94.3137 85.3137 97 82 97H49Z" stroke="#0F1D45" stroke-width="2" stroke-linecap="round" stroke-linejoin="round"/>
</svg>
