<svg width="110" height="110" viewBox="0 0 110 110" fill="none" xmlns="http://www.w3.org/2000/svg">
<path d="M16 109H15V110H16V109ZM94 109V110H95V109H94ZM94 99H95V98H94V99ZM16 99V98H15V99H16ZM6 45L5.01942 44.8039C4.99353 44.9333 4.99353 45.0667 5.01942 45.1961L6 45ZM104 45L104.981 45.1961C105.006 45.0667 105.006 44.9333 104.981 44.8039L104 45ZM103 40L103.981 39.8039C103.887 39.3365 103.477 39 103 39V40ZM7 40V39C6.52332 39 6.1129 39.3365 6.01942 39.8039L7 40ZM16 1V0C15.4477 0 15 0.447715 15 1L16 1ZM94 1H95C95 0.447715 94.5523 0 94 0V1ZM93 36C93 36.5523 93.4477 37 94 37C94.5523 37 95 36.5523 95 36H94H93ZM15 36C15 36.5523 15.4477 37 16 37C16.5523 37 17 36.5523 17 36H16H15ZM88 36C88 36.5523 88.4477 37 89 37C89.5523 37 90 36.5523 90 36H89H88ZM20 36C20 36.5523 20.4477 37 21 37C21.5523 37 22 36.5523 22 36H21H20ZM94 95V96C94.4767 96 94.8871 95.6635 94.9806 95.1961L94 95ZM16 95L15.0194 95.1961C15.1129 95.6635 15.5233 96 16 96V95ZM85.4004 53L86.3809 53.1963C86.4398 52.9025 86.3637 52.5978 86.1738 52.3661C85.9839 52.1344 85.7 52 85.4004 52V53ZM84.5996 57V58C85.0762 58 85.4866 57.6636 85.5802 57.1963L84.5996 57ZM25.4004 57L24.4198 57.1963C24.5134 57.6636 24.9238 58 25.4004 58V57ZM24.5996 53V52C24.3 52 24.0161 52.1344 23.8262 52.3661C23.6363 52.5978 23.5602 52.9025 23.6191 53.1963L24.5996 53ZM79 36C79 36.5523 79.4477 37 80 37C80.5523 37 81 36.5523 81 36H80H79ZM73 36C73 36.5523 73.4477 37 74 37C74.5523 37 75 36.5523 75 36H74H73ZM67 36C67 36.5523 67.4477 37 68 37C68.5523 37 69 36.5523 69 36H68H67ZM57 36C57 36.5523 57.4477 37 58 37C58.5523 37 59 36.5523 59 36H58H57ZM78 14C78 13.4477 77.5523 13 77 13C76.4477 13 76 13.4477 76 14H77H78ZM64 18C64 17.4477 63.5523 17 63 17C62.4477 17 62 17.4477 62 18H63H64ZM73 13C72.4477 13 72 13.4477 72 14C72 14.5523 72.4477 15 73 15V14V13ZM81 15C81.5523 15 82 14.5523 82 14C82 13.4477 81.5523 13 81 13V14V15ZM59 17C58.4477 17 58 17.4477 58 18C58 18.5523 58.4477 19 59 19V18V17ZM67 19C67.5523 19 68 18.5523 68 18C68 17.4477 67.5523 17 67 17V18V19ZM29 36C29 36.5523 29.4477 37 30 37C30.5523 37 31 36.5523 31 36H30H29ZM49 36C49 36.5523 49.4477 37 50 37C50.5523 37 51 36.5523 51 36H50H49ZM29 26C29 26.5523 29.4477 27 30 27C30.5523 27 31 26.5523 31 26H30H29ZM49 26C49 26.5523 49.4477 27 50 27C50.5523 27 51 26.5523 51 26H50H49ZM16 109V110H94V109V108H16V109ZM94 109H95V99H94H93V109H94ZM94 99V98H16V99V100H94V99ZM16 99H15V109H16H17V99H16ZM6 45V46H104V45V44H6V45ZM104 45L104.981 44.8039L103.981 39.8039L103 40L102.019 40.1961L103.019 45.1961L104 45ZM103 40V39H7V40V41H103V40ZM7 40L6.01942 39.8039L5.01942 44.8039L6 45L6.98058 45.1961L7.98058 40.1961L7 40ZM16 1V2H94V1V0H16V1ZM94 1H93V36H94H95V1H94ZM16 36H17V1H16H15V36H16ZM27 6V7H83V6V5H27V6ZM89 12H88V36H89H90V12H89ZM21 36H22V12H21H20V36H21ZM83 6V7C85.7614 7 88 9.23858 88 12H89H90C90 8.13401 86.866 5 83 5V6ZM27 6V5C23.134 5 20 8.13401 20 12H21H22C22 9.23858 24.2386 7 27 7V6ZM104 45L103.019 44.8039L93.0194 94.8039L94 95L94.9806 95.1961L104.981 45.1961L104 45ZM94 95V94H16V95V96H94V95ZM16 95L16.9806 94.8039L6.98058 44.8039L6 45L5.01942 45.1961L15.0194 95.1961L16 95ZM85.4004 53L84.4198 52.8037L83.6191 56.8037L84.5996 57L85.5802 57.1963L86.3809 53.1963L85.4004 53ZM84.5996 57V56H25.4004V57V58H84.5996V57ZM25.4004 57L26.3809 56.8037L25.5802 52.8037L24.5996 53L23.6191 53.1963L24.4198 57.1963L25.4004 57ZM24.5996 53V54H85.4004V53V52H24.5996V53ZM80 27H79V36H80H81V27H80ZM74 36H75V27H74H73V36H74ZM77 24V25C78.1046 25 79 25.8954 79 27H80H81C81 24.7909 79.2091 23 77 23V24ZM77 24V23C74.7909 23 73 24.7909 73 27H74H75C75 25.8954 75.8954 25 77 25V24ZM68 31H67V36H68H69V31H68ZM58 36H59V31H58H57V36H58ZM63 26V27C65.2091 27 67 28.7909 67 31H68H69C69 27.6863 66.3137 25 63 25V26ZM63 26V25C59.6863 25 57 27.6863 57 31H58H59C59 28.7909 60.7909 27 63 27V26ZM77 24H78V14H77H76V24H77ZM63 26H64V18H63H62V26H63ZM73 14V15H81V14V13H73V14ZM59 18V19H67V18V17H59V18ZM30 36H31C31 31.0294 35.0294 27 40 27V26V25C33.9249 25 29 29.9249 29 36H30ZM40 26V27C44.9706 27 49 31.0294 49 36H50H51C51 29.9249 46.0751 25 40 25V26ZM30 26H31C31 21.0294 35.0294 17 40 17V16V15C33.9249 15 29 19.9249 29 26H30ZM40 16V17C44.9706 17 49 21.0294 49 26H50H51C51 19.9249 46.0751 15 40 15V16Z" fill="#0F1D45"/>
</svg>
