<svg width="110" height="110" viewBox="0 0 110 110" fill="none" xmlns="http://www.w3.org/2000/svg">
<path d="M94 1H16V95H94V1Z" stroke="#0F1D45" stroke-width="2" stroke-linecap="round" stroke-linejoin="round"/>
<path d="M26 15C28.2091 15 30 13.2091 30 11C30 8.79086 28.2091 7 26 7C23.7909 7 22 8.79086 22 11C22 13.2091 23.7909 15 26 15Z" stroke="#0F1D45" stroke-width="2" stroke-linecap="round" stroke-linejoin="round"/>
<path d="M38 15C40.2091 15 42 13.2091 42 11C42 8.79086 40.2091 7 38 7C35.7909 7 34 8.79086 34 11C34 13.2091 35.7909 15 38 15Z" stroke="#0F1D45" stroke-width="2" stroke-linecap="round" stroke-linejoin="round"/>
<path d="M72 15C74.2091 15 76 13.2091 76 11C76 8.79086 74.2091 7 72 7C69.7909 7 68 8.79086 68 11C68 13.2091 69.7909 15 72 15Z" stroke="#0F1D45" stroke-width="2" stroke-linecap="round" stroke-linejoin="round"/>
<path d="M84 15C86.2091 15 88 13.2091 88 11C88 8.79086 86.2091 7 84 7C81.7909 7 80 8.79086 80 11C80 13.2091 81.7909 15 84 15Z" stroke="#0F1D45" stroke-width="2" stroke-linecap="round" stroke-linejoin="round"/>
<line x1="23" y1="20" x2="87" y2="20" stroke="#0F1D45" stroke-width="2" stroke-linecap="round"/>
<path d="M82 33H28C24.6863 33 22 35.6863 22 39V83C22 86.3137 24.6863 89 28 89H82C85.3137 89 88 86.3137 88 83V39C88 35.6863 85.3137 33 82 33Z" stroke="#0F1D45" stroke-width="2" stroke-linecap="round" stroke-linejoin="round"/>
<path d="M60 9H50C48.8954 9 48 9.89543 48 11C48 12.1046 48.8954 13 50 13H60C61.1046 13 62 12.1046 62 11C62 9.89543 61.1046 9 60 9Z" stroke="#0F1D45" stroke-width="2" stroke-linecap="round" stroke-linejoin="round"/>
<path d="M94 109H16V99H94V109Z" stroke="#0F1D45" stroke-width="2" stroke-linecap="round"/>
<path d="M55 78.2394C58.6094 78.2394 61.5353 75.3081 61.5353 71.692C61.5353 70.8939 61.3928 70.1291 61.1318 69.4219C61.0462 69.1897 60.7496 69.1374 60.557 69.2924C59.8188 69.8859 58.8815 70.2409 57.8614 70.2409C55.4812 70.2409 53.5516 68.3078 53.5516 65.9232V63.1663C53.5516 62.8769 53.2261 62.7117 53.0012 62.8934C51.2172 64.3347 48.4647 67.2616 48.4647 71.692C48.4647 75.3081 51.3906 78.2394 55 78.2394Z" stroke="#0F1D45" stroke-width="2"/>
<path d="M55 81C62.1797 81 68 75.1689 68 67.9759C68 63.959 66.5822 60.9405 65.1045 58.8853C64.9106 58.6156 64.5027 58.7585 64.5027 59.0909V59.4111C64.5027 61.1312 63.1109 62.5256 61.394 62.5256C59.6771 62.5256 58.2853 61.1312 58.2853 59.4111C58.2853 57.3938 60.6875 52.2266 55.2826 46.8117C54.6926 46.1539 53.8453 45.5127 53.1677 45.0577C52.8944 44.8742 52.5176 45.1586 52.5672 45.4844C52.7833 46.9047 52.7931 49.7518 50.3723 52.7221C46.9398 56.9337 42 60.3667 42 67.9759C42 75.1689 47.8203 81 55 81Z" stroke="#0F1D45" stroke-width="2"/>
</svg>
