<svg width="110" height="110" viewBox="0 0 110 110" fill="none" xmlns="http://www.w3.org/2000/svg">
<path d="M29.6449 51.3238C30.1622 51.1303 30.4248 50.5541 30.2313 50.0368C30.0379 49.5196 29.4617 49.257 28.9444 49.4505L29.2947 50.3871L29.6449 51.3238ZM42.0124 48.548C41.4733 48.4281 40.9391 48.768 40.8192 49.3071C40.6994 49.8463 41.0393 50.3805 41.5784 50.5003L41.7954 49.5242L42.0124 48.548ZM43 62C43 61.4477 42.5523 61 42 61C41.4477 61 41 61.4477 41 62H42H43ZM33 62C33 61.4477 32.5523 61 32 61C31.4477 61 31 61.4477 31 62H32H33ZM19.493 88.138C19.0169 88.4181 18.858 89.031 19.1381 89.507C19.4181 89.983 20.031 90.1419 20.507 89.8619L20 89L19.493 88.138ZM53.493 89.8619C53.969 90.1419 54.5819 89.983 54.8619 89.507C55.142 89.031 54.9831 88.4181 54.507 88.138L54 89L53.493 89.8619ZM27 94C26.4477 94 26 94.4477 26 95C26 95.5523 26.4477 96 27 96V95V94ZM47 96C47.5523 96 48 95.5523 48 95C48 94.4477 47.5523 94 47 94V95V96ZM27 98C26.4477 98 26 98.4477 26 99C26 99.5523 26.4477 100 27 100V99V98ZM47 100C47.5523 100 48 99.5523 48 99C48 98.4477 47.5523 98 47 98V99V100ZM27 102C26.4477 102 26 102.448 26 103C26 103.552 26.4477 104 27 104V103V102ZM47 104C47.5523 104 48 103.552 48 103C48 102.448 47.5523 102 47 102V103V104ZM11 110C11.5523 110 12 109.552 12 109C12 108.448 11.5523 108 11 108V109V110ZM11 90C11.5523 90 12 89.5523 12 89C12 88.4477 11.5523 88 11 88V89V90ZM63 108C62.4477 108 62 108.448 62 109C62 109.552 62.4477 110 63 110V109V108ZM63 88C62.4477 88 62 88.4477 62 89C62 89.5523 62.4477 90 63 90V89V88ZM100 109C100 109.552 100.448 110 101 110C101.552 110 102 109.552 102 109H101H100ZM74 109C74 109.552 74.4477 110 75 110C75.5523 110 76 109.552 76 109H75H74ZM92.3317 100.501C92.6082 100.979 93.22 101.142 93.698 100.866C94.1761 100.589 94.3395 99.9773 94.0629 99.4993L93.1973 100L92.3317 100.501ZM81.9371 99.4993C81.6605 99.9773 81.8239 100.589 82.302 100.866C82.78 101.142 83.3918 100.979 83.6683 100.501L82.8027 100L81.9371 99.4993ZM35 62L34 62L34 62L35 62ZM35 57.7607L36 57.7607L36 57.7607L35 57.7607ZM29.1045 43.2627L28.3882 43.9605L28.3883 43.9606L29.1045 43.2627ZM25.7998 39.8701L26.5161 39.1724L26.516 39.1723L25.7998 39.8701ZM23.3731 16.7471L22.5276 16.2131L22.5276 16.2131L23.3731 16.7471ZM39.2432 8L39.2432 7L39.2431 7L39.2432 8ZM40.5723 8L40.5723 7H40.5723V8ZM60.4736 21.9336L59.534 22.2758L59.534 22.2758L60.4736 21.9336ZM56.7158 23.3018L57.6555 22.9596L57.6555 22.9596L56.7158 23.3018ZM40.5723 12L40.5723 11H40.5723V12ZM39.2432 12L39.2432 11L39.2431 11L39.2432 12ZM26.7549 18.8838L25.9094 18.3498L25.9094 18.3498L26.7549 18.8838ZM28.6641 37.0791L27.9478 37.777L27.9478 37.777L28.6641 37.0791ZM31.9697 40.4717L32.686 39.7738L32.686 39.7738L31.9697 40.4717ZM39 57.7607L40 57.7607L40 57.7607L39 57.7607ZM39 62L40 62V62H39ZM82.068 95.8422C82.257 96.3611 82.8309 96.6286 83.3498 96.4396C83.8688 96.2507 84.1363 95.6768 83.9473 95.1578L83.0076 95.5L82.068 95.8422ZM85.7782 94.3422C85.9671 94.8611 86.541 95.1286 87.06 94.9396C87.5789 94.7507 87.8464 94.1768 87.6574 93.6578L86.7178 94L85.7782 94.3422ZM59 71H58V105.604H59H60V71H59ZM55.6038 109V108H18.3962V109V110H55.6038V109ZM15 105.604H16V71H15H14V105.604H15ZM18.3962 109V108C17.0728 108 16 106.927 16 105.604H15H14C14 108.032 15.9683 110 18.3962 110V109ZM59 105.604H58C58 106.927 56.9272 108 55.6038 108V109V110C58.0317 110 60 108.032 60 105.604H59ZM29.2947 50.3871L28.9444 49.4505C20.2165 52.7145 14 61.13 14 71H15H16C16 61.9913 21.6731 54.3051 29.6449 51.3238L29.2947 50.3871ZM41.7954 49.5242L41.5784 50.5003C50.9749 52.5893 58 60.9754 58 71H59H60C60 60.0181 52.3043 50.836 42.0124 48.548L41.7954 49.5242ZM42 62H41C41 64.2091 39.2091 66 37 66V67V68C40.3137 68 43 65.3137 43 62H42ZM37 67V66C34.7909 66 33 64.2091 33 62H32H31C31 65.3137 33.6863 68 37 68V67ZM20 89L20.507 89.8619C30.687 83.8737 43.313 83.8737 53.493 89.8619L54 89L54.507 88.138C43.7011 81.7816 30.2989 81.7816 19.493 88.138L20 89ZM27 95V96H47V95V94H27V95ZM27 99V100H47V99V98H27V99ZM27 103V104H47V103V102H27V103ZM8 106H9V92H8H7V106H8ZM11 109V108C9.89543 108 9 107.105 9 106H8H7C7 108.209 8.79086 110 11 110V109ZM11 89V88C8.79086 88 7 89.7909 7 92H8H9C9 90.8954 9.89543 90 11 90V89ZM66 92H65V106H66H67V92H66ZM66 106H65C65 107.105 64.1046 108 63 108V109V110C65.2091 110 67 108.209 67 106H66ZM63 89V90C64.1046 90 65 90.8954 65 92H66H67C67 89.7909 65.2091 88 63 88V89ZM81 103V104H95V103V102H81V103ZM95 103V104C97.7614 104 100 106.239 100 109H101H102C102 105.134 98.866 102 95 102V103ZM75 109H76C76 106.239 78.2386 104 81 104V103V102C77.134 102 74 105.134 74 109H75ZM88 97V98C89.8494 98 91.4657 99.0036 92.3317 100.501L93.1973 100L94.0629 99.4993C92.8541 97.4096 90.5922 96 88 96V97ZM82.8027 100L83.6683 100.501C84.5343 99.0036 86.1506 98 88 98V97V96C85.4078 96 83.1459 97.4096 81.9371 99.4993L82.8027 100ZM35 62H36V57.7607H35H34V62H35ZM35 57.7607L36 57.7607C35.9999 52.0836 33.7826 46.631 29.8207 42.5648L29.1045 43.2627L28.3883 43.9606C31.9863 47.6532 33.9999 52.6051 34 57.7608L35 57.7607ZM29.1045 43.2627L29.8208 42.5649L26.5161 39.1724L25.7998 39.8701L25.0835 40.5679L28.3882 43.9605L29.1045 43.2627ZM25.7998 39.8701L26.516 39.1723C20.7794 33.2847 19.829 24.2311 24.2185 17.2811L23.3731 16.7471L22.5276 16.2131C17.644 23.9454 18.7014 34.0179 25.0836 40.568L25.7998 39.8701ZM23.3731 16.7471L24.2185 17.2811C27.4745 12.126 33.146 9.00014 39.2432 9L39.2432 8L39.2431 7C32.4598 7.00016 26.15 10.4778 22.5276 16.2131L23.3731 16.7471ZM39.2432 8V9H40.5723V8V7H39.2432V8ZM40.5723 8L40.5723 9C49.0548 9.00016 56.6314 14.3052 59.534 22.2758L60.4736 21.9336L61.4133 21.5914C58.2231 12.831 49.8956 7.00017 40.5723 7L40.5723 8ZM56.7158 23.3018L57.6555 22.9596C55.0405 15.779 48.2141 11.0002 40.5723 11L40.5723 12L40.5723 13C47.3735 13.0002 53.4489 17.2533 55.7762 23.6439L56.7158 23.3018ZM40.5723 12V11H39.2432V12V13H40.5723V12ZM39.2432 12L39.2431 11C33.8321 11.0002 28.7988 13.7749 25.9094 18.3498L26.7549 18.8838L27.6004 19.4178C30.1234 15.4229 34.5184 13.0001 39.2432 13L39.2432 12ZM26.7549 18.8838L25.9094 18.3498C22.0142 24.5176 22.857 32.5521 27.9478 37.777L28.6641 37.0791L29.3803 36.3812C24.9351 31.819 24.1991 24.8034 27.6004 19.4178L26.7549 18.8838ZM28.6641 37.0791L27.9478 37.777L31.2535 41.1696L31.9697 40.4717L32.686 39.7738L29.3803 36.3812L28.6641 37.0791ZM31.9697 40.4717L31.2535 41.1695C35.5791 45.6091 37.9999 51.5623 38 57.7608L39 57.7607L40 57.7607C39.9999 51.0409 37.3754 44.5869 32.686 39.7738L31.9697 40.4717ZM39 57.7607H38V62H39H40V57.7607H39ZM39 62L38 62C38 62.5523 37.5523 63 37 63V64V65C38.6569 65 40 63.6568 40 62L39 62ZM37 64V63C36.4477 63 36 62.5523 36 62L35 62L34 62C34 63.6568 35.3431 65 37 65V64ZM83.0076 95.5L83.9473 95.1578L57.6555 22.9596L56.7158 23.3018L55.7762 23.6439L82.068 95.8422L83.0076 95.5ZM60.4736 21.9336L59.534 22.2758L85.7782 94.3422L86.7178 94L87.6574 93.6578L61.4133 21.5914L60.4736 21.9336Z" fill="#0F1D45"/>
</svg>
