<svg width="110" height="110" viewBox="0 0 110 110" fill="none" xmlns="http://www.w3.org/2000/svg">
<path d="M16 1V0C15.4477 0 15 0.447715 15 1L16 1ZM94 1H95C95 0.447715 94.5523 0 94 0V1ZM94 109V110C94.5523 110 95 109.552 95 109H94ZM16 109H15C15 109.552 15.4477 110 16 110V109ZM60 49C60 49.5523 60.4477 50 61 50C61.5523 50 62 49.5523 62 49H61H60ZM52 65C52 64.4477 51.5523 64 51 64C50.4477 64 50 64.4477 50 65H51H52ZM31 58C30.4477 58 30 58.4477 30 59C30 59.5523 30.4477 60 31 60V59V58ZM40 45C40 45.5523 40.4477 46 41 46C41.5523 46 42 45.5523 42 45H41H40ZM31 50C30.4477 50 30 50.4477 30 51C30 51.5523 30.4477 52 31 52V51V50ZM16 1V2H94V1V0H16V1ZM94 1H93V109H94H95V1H94ZM94 109V108H16V109V110H94V109ZM16 109H17V1H16H15V109H16ZM88 55H87C87 72.6731 72.6731 87 55 87V88V89C73.7777 89 89 73.7777 89 55H88ZM55 88V87C37.3269 87 23 72.6731 23 55H22H21C21 73.7777 36.2223 89 55 89V88ZM22 55H23C23 37.3269 37.3269 23 55 23V22V21C36.2223 21 21 36.2223 21 55H22ZM55 22V23C72.6731 23 87 37.3269 87 55H88H89C89 36.2223 73.7777 21 55 21V22ZM80 55H79C79 68.2548 68.2548 79 55 79V80V81C69.3594 81 81 69.3594 81 55H80ZM55 80V79C41.7452 79 31 68.2548 31 55H30H29C29 69.3594 40.6406 81 55 81V80ZM30 55H31C31 41.7452 41.7452 31 55 31V30V29C40.6406 29 29 40.6406 29 55H30ZM55 30V31C68.2548 31 79 41.7452 79 55H80H81C81 40.6406 69.3594 29 55 29V30ZM30 11H29C29 12.6569 27.6569 14 26 14V15V16C28.7614 16 31 13.7614 31 11H30ZM26 15V14C24.3431 14 23 12.6569 23 11H22H21C21 13.7614 23.2386 16 26 16V15ZM22 11H23C23 9.34315 24.3431 8 26 8V7V6C23.2386 6 21 8.23858 21 11H22ZM26 7V8C27.6569 8 29 9.34315 29 11H30H31C31 8.23858 28.7614 6 26 6V7ZM40 15V14C38.3431 14 37 12.6569 37 11H36H35C35 13.7614 37.2386 16 40 16V15ZM36 11H37C37 9.34315 38.3431 8 40 8V7V6C37.2386 6 35 8.23858 35 11H36ZM84 7V8C85.6569 8 87 9.34315 87 11H88H89C89 8.23858 86.7614 6 84 6V7ZM88 11H87C87 12.6569 85.6569 14 84 14V15V16C86.7614 16 89 13.7614 89 11H88ZM84 7V6H40V7V8H84V7ZM40 15V16H84V15V14H40V15ZM73 49H72C72 51.7614 69.7614 54 67 54V55V56C70.866 56 74 52.866 74 49H73ZM61 49H62C62 46.2386 64.2386 44 67 44V43V42C63.134 42 60 45.134 60 49H61ZM67 43V44C69.7614 44 72 46.2386 72 49H73H74C74 45.134 70.866 42 67 42V43ZM67 55V54H30V55V56H67V55ZM63 65H64C64 61.134 60.866 58 57 58V59V60C59.7614 60 62 62.2386 62 65H63ZM51 65H50C50 68.866 53.134 72 57 72V71V70C54.2386 70 52 67.7614 52 65H51ZM57 71V72C60.866 72 64 68.866 64 65H63H62C62 67.7614 59.7614 70 57 70V71ZM57 59V58H31V59V60H57V59ZM53 45H52C52 47.7614 49.7614 50 47 50V51V52C50.866 52 54 48.866 54 45H53ZM41 45H42C42 42.2386 44.2386 40 47 40V39V38C43.134 38 40 41.134 40 45H41ZM47 39V40C49.7614 40 52 42.2386 52 45H53H54C54 41.134 50.866 38 47 38V39ZM47 51V50H31V51V52H47V51Z" fill="#0F1D45"/>
</svg>
