<svg width="110" height="110" viewBox="0 0 110 110" fill="none" xmlns="http://www.w3.org/2000/svg">
<path d="M104 49H6V109H104V49Z" stroke="#0F1D45" stroke-width="2" stroke-linecap="round" stroke-linejoin="round"/>
<path d="M68 55H18C14.6863 55 12 57.6863 12 61V97C12 100.314 14.6863 103 18 103H68C71.3137 103 74 100.314 74 97V61C74 57.6863 71.3137 55 68 55Z" stroke="#0F1D45" stroke-width="2" stroke-linecap="round" stroke-linejoin="round"/>
<path d="M60 90.8223H25C25 94.136 27.6863 96.8223 31 96.8223H54C57.3137 96.8223 60 94.136 60 90.8223Z" stroke="#0F1D45" stroke-width="2" stroke-linecap="round" stroke-linejoin="round"/>
<path d="M50.6777 86C50.6777 86 55.1777 82.095 50.6777 76.5C46.1777 70.905 50.6777 67 50.6777 67" stroke="#0F1D45" stroke-width="2" stroke-linecap="round"/>
<path d="M42.6777 86C42.6777 86 47.1777 82.095 42.6777 76.5C38.1777 70.905 42.6777 67 42.6777 67" stroke="#0F1D45" stroke-width="2" stroke-linecap="round"/>
<path d="M34.6777 86C34.6777 86 39.1777 82.095 34.6777 76.5C30.1777 70.905 34.6777 67 34.6777 67" stroke="#0F1D45" stroke-width="2" stroke-linecap="round"/>
<path d="M70 85V73C70 71.8954 69.1046 71 68 71C66.8954 71 66 71.8954 66 73V85C66 86.1046 66.8954 87 68 87C69.1046 87 70 86.1046 70 85Z" stroke="#0F1D45" stroke-width="2" stroke-linecap="round" stroke-linejoin="round"/>
<path d="M89 84C91.2091 84 93 82.2091 93 80C93 77.7909 91.2091 76 89 76C86.7909 76 85 77.7909 85 80C85 82.2091 86.7909 84 89 84Z" stroke="#0F1D45" stroke-width="2" stroke-linecap="round" stroke-linejoin="round"/>
<path d="M89 98C91.2091 98 93 96.2091 93 94C93 91.7909 91.2091 90 89 90C86.7909 90 85 91.7909 85 94C85 96.2091 86.7909 98 89 98Z" stroke="#0F1D45" stroke-width="2" stroke-linecap="round" stroke-linejoin="round"/>
<path d="M95 60H83C81.8954 60 81 60.8954 81 62V68C81 69.1046 81.8954 70 83 70H95C96.1046 70 97 69.1046 97 68V62C97 60.8954 96.1046 60 95 60Z" stroke="#0F1D45" stroke-width="2" stroke-linecap="round" stroke-linejoin="round"/>
</svg>
