<svg width="110" height="110" viewBox="0 0 110 110" fill="none" xmlns="http://www.w3.org/2000/svg">
<path d="M28 48H82M16 1H94V109H16V1ZM53 54H57V64L58.4808 66.2211C60.1234 68.6851 61 71.5803 61 74.5416V94H49V74.5416C49 71.5803 49.8766 68.6851 51.5192 66.2211L53 64V54ZM36 54H40V64L41.4808 66.2211C43.1234 68.6851 44 71.5803 44 74.5416V94H32V74.5416C32 71.5803 32.8766 68.6851 34.5192 66.2211L36 64V54ZM70 54H74V64L75.4808 66.2211C77.1234 68.6851 78 71.5803 78 74.5416V94H66V74.5416C66 71.5803 66.8766 68.6851 68.5192 66.2211L70 64V54ZM28 7H82C85.3137 7 88 9.68629 88 13V97C88 100.314 85.3137 103 82 103H28C24.6863 103 22 100.314 22 97V13C22 9.68629 24.6863 7 28 7ZM83 36C83 39.3137 80.3137 42 77 42C73.6863 42 71 39.3137 71 36C71 32.6863 73.6863 30 77 30C80.3137 30 83 32.6863 83 36ZM61 36C61 39.3137 58.3137 42 55 42C51.6863 42 49 39.3137 49 36C49 32.6863 51.6863 30 55 30C58.3137 30 61 32.6863 61 36ZM72 19C72 22.3137 69.3137 25 66 25C62.6863 25 60 22.3137 60 19C60 15.6863 62.6863 13 66 13C69.3137 13 72 15.6863 72 19ZM50 19C50 22.3137 47.3137 25 44 25C40.6863 25 38 22.3137 38 19C38 15.6863 40.6863 13 44 13C47.3137 13 50 15.6863 50 19ZM39 36C39 39.3137 36.3137 42 33 42C29.6863 42 27 39.3137 27 36C27 32.6863 29.6863 30 33 30C36.3137 30 39 32.6863 39 36Z" stroke="#0F1D45" stroke-width="2" stroke-linecap="round" stroke-linejoin="round"/>
</svg>
