<svg width="60" height="61" viewBox="0 0 60 61" fill="none" xmlns="http://www.w3.org/2000/svg">
<path d="M25.3639 3.60292C23.8981 5.86788 21.0451 6.79487 18.528 5.82402C14.6711 4.3364 10.563 7.32109 10.786 11.449C10.9315 14.1429 9.16822 16.5698 6.56119 17.2639C2.56646 18.3274 0.99731 23.1567 3.60398 26.3652C5.30514 28.4591 5.30514 31.4589 3.60398 33.5528C0.99731 36.7613 2.56646 41.5906 6.56119 42.6542C9.16822 43.3483 10.9315 45.7752 10.786 48.4691C10.563 52.597 14.6711 55.5817 18.528 54.094C21.0451 53.1232 23.8981 54.0502 25.3639 56.3151C27.6098 59.7857 32.6877 59.7857 34.9336 56.3151C36.3993 54.0502 39.2523 53.1232 41.7694 54.094C45.6264 55.5817 49.7344 52.597 49.5115 48.4691C49.366 45.7752 51.1292 43.3483 53.7363 42.6542C57.731 41.5906 59.3001 36.7613 56.6935 33.5528C54.9923 31.4589 54.9923 28.4591 56.6935 26.3652C59.3001 23.1567 57.731 18.3274 53.7363 17.2639C51.1292 16.5698 49.366 14.1429 49.5115 11.449C49.7344 7.32109 45.6264 4.3364 41.7694 5.82402C39.2523 6.79487 36.3993 5.86788 34.9336 3.60292C32.6877 0.132359 27.6098 0.132359 25.3639 3.60292Z" stroke="#0F1D45" stroke-width="2" stroke-linecap="round" stroke-linejoin="round"/>
<circle cx="30" cy="30.25" r="20" stroke="#0F1D45" stroke-width="2"/>
<path d="M40 23.25L27.3333 36.25L21 29.75" stroke="#0F1D45" stroke-width="2" stroke-linecap="round" stroke-linejoin="round"/>
</svg>
