<svg width="60" height="60" viewBox="0 0 60 60" fill="none" xmlns="http://www.w3.org/2000/svg">
<path d="M42.6 25.6034V4.5H17.4V25.6034M42.6 25.6034C42.6 32.4023 36.9588 37.9138 30 37.9138M42.6 25.6034C50.5529 25.6034 57 19.3046 57 11.5345H42.6M17.4 25.6034C17.4 32.4023 23.0412 37.9138 30 37.9138M17.4 25.6034C9.4471 25.6034 3 19.3046 3 11.5345H17.4M30 37.9138V55.5M42.609 55.5H17.409" stroke="#0F1D45" stroke-width="2" stroke-linecap="round" stroke-linejoin="round"/>
<path d="M29.4837 13.691C29.7831 12.7697 31.0865 12.7697 31.3859 13.691L32.4554 16.9828C32.5893 17.3948 32.9733 17.6738 33.4065 17.6738H36.8677C37.8364 17.6738 38.2392 18.9134 37.4555 19.4828L34.6553 21.5172C34.3048 21.7719 34.1582 22.2232 34.292 22.6353L35.3616 25.9271C35.6609 26.8484 34.6065 27.6145 33.8228 27.0451L31.0226 25.0106C30.6721 24.756 30.1975 24.756 29.847 25.0106L27.0468 27.0451C26.2631 27.6145 25.2087 26.8484 25.508 25.9271L26.5776 22.6353C26.7114 22.2232 26.5648 21.7719 26.2143 21.5172L23.4141 19.4828C22.6304 18.9134 23.0332 17.6738 24.0019 17.6738H27.4631C27.8963 17.6738 28.2803 17.3948 28.4142 16.9828L29.4837 13.691Z" stroke="#0F1D45" stroke-width="2"/>
</svg>
