<svg width="60" height="60" viewBox="0 0 60 60" fill="none" xmlns="http://www.w3.org/2000/svg">
<path d="M7.48563 30.691C7.78499 29.7697 9.0884 29.7697 9.38775 30.691L10.4573 33.9828C10.5912 34.3948 10.9751 34.6738 11.4084 34.6738H14.8696C15.8383 34.6738 16.2411 35.9134 15.4574 36.4828L12.6572 38.5172C12.3067 38.7719 12.16 39.2232 12.2939 39.6353L13.3635 42.9271C13.6628 43.8484 12.6084 44.6145 11.8246 44.0451L9.02448 42.0106C8.67399 41.756 8.19939 41.756 7.84891 42.0106L5.04874 44.0451C4.26502 44.6145 3.21054 43.8484 3.50989 42.9271L4.57946 39.6353C4.71334 39.2232 4.56668 38.7719 4.21619 38.5172L1.41602 36.4828C0.63231 35.9134 1.03509 34.6738 2.00381 34.6738H5.46501C5.89823 34.6738 6.28219 34.3948 6.41606 33.9828L7.48563 30.691Z" stroke="#0F1D45" stroke-width="2"/>
<path d="M50.4856 30.691C50.785 29.7697 52.0884 29.7697 52.3877 30.691L53.4573 33.9828C53.5912 34.3948 53.9751 34.6738 54.4084 34.6738H57.8696C58.8383 34.6738 59.2411 35.9134 58.4574 36.4828L55.6572 38.5172C55.3067 38.7719 55.16 39.2232 55.2939 39.6353L56.3635 42.9271C56.6628 43.8484 55.6084 44.6145 54.8246 44.0451L52.0245 42.0106C51.674 41.756 51.1994 41.756 50.8489 42.0106L48.0487 44.0451C47.265 44.6145 46.2105 43.8484 46.5099 42.9271L47.5795 39.6353C47.7133 39.2232 47.5667 38.7719 47.2162 38.5172L44.416 36.4828C43.6323 35.9134 44.0351 34.6738 45.0038 34.6738H48.465C48.8982 34.6738 49.2822 34.3948 49.4161 33.9828L50.4856 30.691Z" stroke="#0F1D45" stroke-width="2"/>
<path d="M28.0998 17.382C28.6985 15.5393 31.3053 15.5393 31.904 17.382L34.0432 23.9656C34.3109 24.7896 35.0788 25.3475 35.9453 25.3475H42.8677C44.8051 25.3475 45.6107 27.8268 44.0433 28.9656L38.4429 33.0344C37.7419 33.5437 37.4486 34.4465 37.7164 35.2705L39.8555 41.8541C40.4542 43.6967 38.3453 45.229 36.7778 44.0902L31.1775 40.0213C30.4765 39.512 29.5273 39.512 28.8264 40.0213L23.226 44.0902C21.6586 45.229 19.5496 43.6967 20.1483 41.8541L22.2875 35.2705C22.5552 34.4465 22.2619 33.5437 21.5609 33.0344L15.9606 28.9656C14.3932 27.8268 15.1987 25.3475 17.1362 25.3475H24.0586C24.925 25.3475 25.6929 24.7896 25.9607 23.9656L28.0998 17.382Z" stroke="#0F1D45" stroke-width="2"/>
<path d="M41.108 10.691C41.4073 9.76967 42.7108 9.76967 43.0101 10.691L43.5184 12.2553C43.6523 12.6673 44.0362 12.9463 44.4694 12.9463H46.1143C47.083 12.9463 47.4858 14.1859 46.7021 14.7553L45.3714 15.7221C45.0209 15.9768 44.8742 16.4281 45.0081 16.8402L45.5164 18.4045C45.8157 19.3258 44.7613 20.0919 43.9775 19.5225L42.6468 18.5557C42.2963 18.3011 41.8218 18.3011 41.4713 18.5557L40.1406 19.5225C39.3568 20.0919 38.3024 19.3258 38.6017 18.4045L39.11 16.8402C39.2439 16.4281 39.0972 15.9768 38.7467 15.7221L37.416 14.7553C36.6323 14.1859 37.0351 12.9463 38.0038 12.9463H39.6487C40.0819 12.9463 40.4658 12.6673 40.5997 12.2553L41.108 10.691Z" stroke="#0F1D45" stroke-width="2"/>
<path d="M17.108 10.691C17.4073 9.76967 18.7108 9.76967 19.0101 10.691L19.5184 12.2553C19.6523 12.6673 20.0362 12.9463 20.4694 12.9463H22.1143C23.083 12.9463 23.4858 14.1859 22.7021 14.7553L21.3714 15.7221C21.0209 15.9768 20.8742 16.4281 21.0081 16.8402L21.5164 18.4045C21.8157 19.3258 20.7613 20.0919 19.9775 19.5225L18.6468 18.5557C18.2963 18.3011 17.8218 18.3011 17.4713 18.5557L16.1406 19.5225C15.3568 20.0919 14.3024 19.3258 14.6017 18.4045L15.11 16.8402C15.2439 16.4281 15.0972 15.9768 14.7467 15.7221L13.416 14.7553C12.6323 14.1859 13.0351 12.9463 14.0038 12.9463H15.6487C16.0819 12.9463 16.4658 12.6673 16.5997 12.2553L17.108 10.691Z" stroke="#0F1D45" stroke-width="2"/>
</svg>
