<svg width="60" height="60" viewBox="0 0 60 60" fill="none" xmlns="http://www.w3.org/2000/svg">
<path d="M19.1667 48.2962V54.2962H2.5L6.66667 45.9629L2.5 37.6295H10M40.8333 48.2962V54.2962H57.5L53.3333 45.9629L57.5 37.6295H50M46.6667 29.2962V45.9629L44.0024 45.3234C34.7981 43.1144 25.2019 43.1144 15.9976 45.3234L13.3333 45.9629V29.2962L15.9976 28.6568C25.2019 26.4477 34.7981 26.4477 44.0024 28.6568L46.6667 29.2962Z" stroke="#0F1D45" stroke-width="2" stroke-linecap="round" stroke-linejoin="round"/>
<path d="M20 10.7188V9.71875C19.6603 9.71875 19.3439 9.89119 19.1597 10.1766L20 10.7188ZM40 10.7188L40.8403 10.1766C40.6561 9.89119 40.3397 9.71875 40 9.71875V10.7188ZM45 18.4688L45.6958 19.187C46.0384 18.8551 46.0989 18.3274 45.8403 17.9266L45 18.4688ZM15 18.4688L14.1597 17.9266C13.9011 18.3274 13.9616 18.8551 14.3042 19.187L15 18.4688ZM21 17.4688C20.4477 17.4688 20 17.9165 20 18.4688C20 19.021 20.4477 19.4688 21 19.4688V18.4688V17.4688ZM39 19.4688C39.5523 19.4688 40 19.021 40 18.4688C40 17.9165 39.5523 17.4688 39 17.4688V18.4688V19.4688ZM31 2C31 1.44772 30.5523 1 30 1C29.4477 1 29 1.44772 29 2H30H31ZM29 4.90625C29 5.45853 29.4477 5.90625 30 5.90625C30.5523 5.90625 31 5.45853 31 4.90625H30H29ZM15.6956 4.18779C15.2988 3.80364 14.6657 3.81389 14.2815 4.21068C13.8974 4.60747 13.9076 5.24055 14.3044 5.62471L15 4.90625L15.6956 4.18779ZM16.4257 7.67846C16.8225 8.06261 17.4556 8.05236 17.8398 7.65557C18.2239 7.25878 18.2137 6.6257 17.8169 6.24154L17.1213 6.96L16.4257 7.67846ZM45.6958 5.62449C46.0925 5.24021 46.1025 4.60713 45.7182 4.21046C45.334 3.81378 44.7009 3.80373 44.3042 4.18801L45 4.90625L45.6958 5.62449ZM42.1829 6.24304C41.7862 6.62732 41.7762 7.2604 42.1604 7.65707C42.5447 8.05375 43.1778 8.0638 43.5745 7.67952L42.8787 6.96128L42.1829 6.24304ZM18.75 22.1016L19.4458 21.3833L19.4458 21.3833L18.75 22.1016ZM20.625 23.918L19.9292 24.6362L19.9292 24.6362L20.625 23.918ZM38.2105 23.6538C37.8138 24.0381 37.8037 24.6712 38.188 25.0679C38.5723 25.4645 39.2054 25.4746 39.602 25.0903L38.9062 24.3721L38.2105 23.6538ZM20.398 25.0903C20.7946 25.4746 21.4277 25.4645 21.812 25.0679C22.1963 24.6712 22.1862 24.0381 21.7895 23.6538L21.0938 24.3721L20.398 25.0903ZM20 10.7188V11.7188H40V10.7188V9.71875H20V10.7188ZM40 10.7188L39.1597 11.2609L44.1597 19.0109L45 18.4688L45.8403 17.9266L40.8403 10.1766L40 10.7188ZM15 18.4688L15.8403 19.0109L20.8403 11.2609L20 10.7188L19.1597 10.1766L14.1597 17.9266L15 18.4688ZM21 18.4688V19.4688H39V18.4688V17.4688H21V18.4688ZM30 2H29V4.90625H30H31V2H30ZM15 4.90625L14.3044 5.62471L16.4257 7.67846L17.1213 6.96L17.8169 6.24154L15.6956 4.18779L15 4.90625ZM45 4.90625L44.3042 4.18801L42.1829 6.24304L42.8787 6.96128L43.5745 7.67952L45.6958 5.62449L45 4.90625ZM18.75 22.1016L19.4458 21.3833L15.6958 17.7505L15 18.4688L14.3042 19.187L18.0542 22.8198L18.75 22.1016ZM20.625 23.918L21.3208 23.1997L19.4458 21.3833L18.75 22.1016L18.0542 22.8198L19.9292 24.6362L20.625 23.918ZM45 18.4688L44.3042 17.7505L40.5542 21.3833L41.25 22.1016L41.9458 22.8198L45.6958 19.187L45 18.4688ZM41.25 22.1016L40.5542 21.3833L38.6792 23.1997L39.375 23.918L40.0708 24.6362L41.9458 22.8198L41.25 22.1016ZM39.375 23.918L38.6792 23.1997L38.2105 23.6538L38.9062 24.3721L39.602 25.0903L40.0708 24.6362L39.375 23.918ZM21.0938 24.3721L21.7895 23.6538L21.3208 23.1997L20.625 23.918L19.9292 24.6362L20.398 25.0903L21.0938 24.3721Z" fill="#0F1D45"/>
</svg>
