<svg width="60" height="60" viewBox="0 0 60 60" fill="none" xmlns="http://www.w3.org/2000/svg">
<path d="M22.5 33C24.4326 34.8557 27.0799 36 30 36C32.9201 36 35.5674 34.8557 37.5 33M30.1058 10.3932C35.9637 4.53564 45.4619 4.53553 51.3197 10.3932C57.1775 16.251 57.1773 25.7492 51.3197 31.6071L30.1058 52.8195L8.8934 31.6071C3.03553 25.7493 3.03553 16.2511 8.8934 10.3932C14.7512 4.53615 24.2481 4.536 30.1058 10.3932ZM42 21.75C42 22.9926 40.9926 24 39.75 24C38.5074 24 37.5 22.9926 37.5 21.75C37.5 20.5074 38.5074 19.5 39.75 19.5C40.9926 19.5 42 20.5074 42 21.75ZM22.5 21.75C22.5 22.9926 21.4926 24 20.25 24C19.0074 24 18 22.9926 18 21.75C18 20.5074 19.0074 19.5 20.25 19.5C21.4926 19.5 22.5 20.5074 22.5 21.75Z" stroke="#0F1D45" stroke-width="2" stroke-linecap="round" stroke-linejoin="round"/>
</svg>
